<?xml version="1.0" standalone="no"?>
<!DOCTYPE svg PUBLIC "-//W3C//DTD SVG 1.1//EN" "http://www.w3.org/Graphics/SVG/1.1/DTD/svg11.dtd" >
<svg xmlns="http://www.w3.org/2000/svg" xmlns:xlink="http://www.w3.org/1999/xlink" version="1.1">
<metadata>
Created by FontForge 20150318 at Mon Apr  6 18:02:46 2015
 By uniteet7
Copyright (c) 2013 by Carlos de Toro Hernando. All rights reserved. www.carlosdetoro.com
</metadata>
<defs>
<font id="Born" horiz-adv-x="530" >
  <font-face 
    font-family="Born"
    font-weight="400"
    font-stretch="normal"
    units-per-em="1000"
    panose-1="2 0 0 0 0 0 0 0 0 0"
    ascent="750"
    descent="-250"
    x-height="449"
    cap-height="695"
    bbox="-41 -275 1029.67 912"
    underline-thickness="50"
    underline-position="-50"
    unicode-range="U+000D-FB04"
  />
<missing-glyph horiz-adv-x="190" 
 />
    <glyph glyph-name="ff" unicode="ff" horiz-adv-x="669" 
d="M40 33h48q13 0 15 19l3 233q0 14 3 95q-2 19 -15 19l-42 1q-4 0 -4 3v26q0 7 4 8q1 0 13.5 2.5t25.5 4.5t20 3q5 123 53 180q13 16 31 31q32 28 85.5 48t96.5 20q82 0 122 -40q30 26 65 44q51 27 99 27q74 0 104 -34l1 -11l-14 -93q0 -3 -4 -3h-47q-4 0 -4 4l-3 34
q-3 22 -27 33.5t-49 11.5q-75 0 -97 -71q-18 -56 -18 -236q0 -55 2 -177l3 -163q2 -19 14 -19h46q10 0 10 -36q-56 3 -116 3q-9 0 -123 -3q0 36 10 36h53q13 0 15 19l2 163q0 27 1 70q0 14 3 95q-2 19 -15 19l-42 1q-4 0 -4 3v26q0 7 4 8l59 10q2 91 15 142
q-1 41 -35.5 61.5t-74.5 20.5q-42 0 -79 -24t-49 -57q-15 -51 -15 -229l2 -146l3 -162q2 -20 14 -20h46q10 0 10 -36q-56 3 -116 3q-4 0 -118 -3q0 36 10 36z" />
    <glyph glyph-name="fi" unicode="fi" horiz-adv-x="626" 
d="M115 215q0 27 1 70q0 14 3 95q-2 19 -15 19l-42 1q-4 0 -4 3v26q0 7 4 8q1 0 13.5 2.5t25.5 4.5t20 3q5 123 53 180l5 5q9 13 39.5 37t62.5 38q41 19 101 19q81 0 119 -38l1 -11l-14 -93q0 -3 -4 -3h-47q-4 0 -4 4l-3 34q-3 24 -31 38t-62 14q-42 0 -76.5 -23.5
t-46.5 -56.5q-13 -47 -15 -139q2 -5 7 -5h175q40 0 82 6q17 3 20 3l10 -3l20 -22v-278l5 -100q0 -9 3.5 -13.5t6.5 -5.5h4h47q10 0 10 -36q-73 3 -122 3l-117 -3q0 36 10 36h48q15 -1 15 19q4 54 4 100v224q0 21 -24 22h-195q-5 0 -7 -4.5t-2 -8.5v-4v-21v-36t0.5 -38.5
t1 -34t0.5 -25.5v-11l3 -164q2 -19 14 -19h46q10 0 10 -36q-55 3 -116 3q-4 0 -118 -3q0 36 10 36h48q13 0 15 19z" />
    <glyph glyph-name="fl" unicode="fl" horiz-adv-x="624" 
d="M50 33h48q13 0 15 19l2 163q0 27 1 70q0 14 3 95q-2 19 -15 19l-42 1q-4 0 -4 3v26q0 7 4 8q1 0 13.5 2.5t25.5 4.5t20 3q3 69 16.5 114.5t50.5 81.5q42 42 93 64q41 19 101 19q44 0 79 -13l22 9l10 -4l20 -18v-548l4 -100q2 -19 15 -19h47q10 0 10 -36q-55 3 -122 3
q-4 0 -118 -3q0 36 10 36h49q12 0 14 19q5 54 5 100v477q-9 19 -34.5 30.5t-55.5 11.5q-42 0 -76.5 -23.5t-46.5 -56.5q-13 -47 -15 -139q2 -5 7 -5h95l-17 -48h-76q-5 0 -7 -4.5t-2 -8.5v-4v-21v-36t0.5 -38.5t1 -34t0.5 -25.5v-11l3 -163q2 -20 14 -20h46q10 0 10 -36
q-55 3 -116 3q-4 0 -118 -3q0 36 10 36z" />
    <glyph glyph-name="ffi" unicode="ffi" horiz-adv-x="920" 
d="M760 452l20 -22v-278l5 -100q0 -9 3.5 -13.5t7.5 -4.5l3 -1h47q10 0 10 -36q-73 3 -122 3l-108 -3q0 36 10 36h39q15 -1 15 19q4 54 4 100v224q0 23 -28 23h-40q-5 0 -5 4v23q0 7 5 8l32 6q33 5 62 10t30 5zM40 33h48q13 0 15 19l2 163q0 27 1 70q0 14 3 95q-2 19 -15 19
l-42 1q-4 0 -4 3v26q0 7 4 8q1 0 13.5 2.5t25.5 4.5t20 3q5 123 53 180q14 17 32 31q31 28 85 48t96 20q82 0 122 -40q30 26 65 44q51 27 99 27q74 0 104 -34l1 -11l-14 -93q0 -3 -4 -3h-47q-4 0 -4 4l-3 34q-3 22 -27 33.5t-49 11.5q-74 0 -98 -71q-11 -36 -14 -90t-3 -177
l2 -146l3 -163q2 -19 14 -19h36q10 0 10 -36q-56 3 -106 3q-9 0 -123 -3q0 36 10 36h53q13 0 15 19l2 163q0 27 1 70q0 14 3 95q-2 19 -15 19l-42 1q-4 0 -4 3v26q0 7 4 8l59 10q2 91 15 142q-1 41 -35.5 61.5t-74.5 20.5q-42 0 -79 -24t-49 -57q-15 -51 -15 -229l2 -146
l3 -162q2 -20 14 -20h56q10 0 10 -36q-55 3 -126 3q-4 0 -118 -3q0 36 10 36z" />
    <glyph glyph-name="ffl" unicode="ffl" horiz-adv-x="893" 
d="M40 33h48q13 0 15 19l2 163q0 27 1 70q0 14 3 95q-2 19 -15 19l-42 1q-4 0 -4 3v26q0 7 4 8q1 0 13.5 2.5t25.5 4.5t20 3q5 123 53 180q13 16 31 31q32 28 85.5 48t96.5 20q82 0 122 -40q30 26 65 44q51 27 99 27q46 0 77 -15l17 8l10 -4l14 -21v-573q0 -87 4 -99
q2 -20 15 -20h47q10 0 10 -36q-55 3 -122 3q-21 0 -39 -0.5t-38 -1.5t-33 -1q0 36 10 36h41q12 0 14 19q5 54 5 100v507q-5 20 -29 30t-46 10q-74 0 -98 -71q-17 -54 -17 -208q0 -34 1 -102t1 -103l3 -163q2 -19 14 -19h36q10 0 10 -36q-56 3 -106 3q-12 0 -126 -3
q0 36 10 36h56q13 0 15 19l2 163q0 28 1 70q0 14 3 95q-2 19 -15 19l-42 1q-4 0 -4 3v26q0 7 4 8l59 10q2 91 15 142q-1 41 -35.5 61.5t-74.5 20.5q-42 0 -79 -24t-49 -57q-15 -51 -15 -229l2 -146l3 -162q2 -20 14 -20h56q10 0 10 -36q-55 3 -126 3q-4 0 -118 -3
q0 36 10 36z" />
    <glyph glyph-name=".notdef" horiz-adv-x="190" 
 />
    <glyph glyph-name=".null" horiz-adv-x="0" 
 />
    <glyph glyph-name="nonmarkingreturn" horiz-adv-x="333" 
 />
    <glyph glyph-name="NULL" horiz-adv-x="0" 
 />
    <glyph glyph-name="NULL" horiz-adv-x="0" 
 />
    <glyph glyph-name="CR" unicode="&#xd;" horiz-adv-x="190" 
 />
    <glyph glyph-name="space" unicode=" " horiz-adv-x="215" 
 />
    <glyph glyph-name="exclam" unicode="!" horiz-adv-x="287" 
d="M189 690q8 1 12.5 -1.5t3.5 -10.5q-37 -472 -37 -476q0 -6 -7 -5q-27 4 -32 6q-5 1 -5 7q-32 426 -34 443q-3 15 9 18q73 17 90 19zM101 43q0 27 12 37q12 12 39 14q29 2 41 -12q13 -12 11 -39q-1 -19 -13 -34q-12 -16 -45 -16q-19 0 -35 19q-10 15 -10 31z" />
    <glyph glyph-name="quotedbl" unicode="&#x22;" horiz-adv-x="269" 
d="M118 670q0 -39 -7.5 -95t-13.5 -70q-10 -28 -24 -42q-1 -1 -3.5 -1.5t-5 1t-2.5 5.5q-2 173 -14 206q-1 4 4 7q41 28 54 31q7 2 9 -1q3 -6 3 -41zM253 676q0 -39 -7.5 -95t-13.5 -70q-10 -28 -24 -42q-1 -1 -3.5 -1.5t-5 1t-2.5 5.5q-2 173 -14 206q-1 4 4 7q41 28 54 31
q7 2 9 -1q3 -6 3 -41z" />
    <glyph glyph-name="numbersign" unicode="#" horiz-adv-x="594" 
d="M542 418h-103l-21 -147h118q2 -1 2 -10q-1 -7 -9 -27.5t-11 -21.5h-109q-25 -152 -36 -187q-3 -7 -5 -8q-5 -7 -44 -28q-5 -2 -7.5 -1.5t-3.5 2t0 4.5q12 61 37 218h-133q-25 -152 -36 -187q-3 -7 -5 -8q-5 -7 -44 -28q-5 -2 -7.5 -1.5t-3.5 2t0 4.5q17 82 38 218h-102
q-6 0 -6 9q5 41 9 50q1 2 9 2q7 -1 98 -2q2 16 6.5 46t8 54.5t6.5 46.5h-107q-6 0 -6 9q5 41 9 50q1 2 9 2q7 -1 103 -2l29 218q0 5 6 3q29 -10 51 -22q3 -1 1 -7l-28 -192h132l29 220q0 5 6 3q30 -10 52 -22q3 -1 1 -7l-28 -194h113q2 -1 2 -10q-1 -7 -9 -27.5t-11 -21.5z
M226 271h133q14 98 20 147h-132z" />
    <glyph glyph-name="dollar" unicode="$" horiz-adv-x="516" 
d="M363 616q-14 21 -55 30q-16 -151 -27 -266q10 -6 35 -19t35 -18.5t29.5 -17.5t28 -20.5t21 -23t17.5 -28.5t9.5 -33t4.5 -41q0 -70 -42 -117t-113 -67q-32 -8 -70 -10l-8 -43q-4 -16 -12 -22q-5 -3 -15 -7q-14 -6 -11 7l11 66q-60 3 -111 24l-21 6q-3 4 -3 8q-1 4 -9 58
t-8 60q0 4 3 6l37 10q4 1 6 -2q3 -8 6.5 -21t5 -19.5t6 -16.5t10.5 -21q2 -4 7.5 -10.5t27 -20t49.5 -19.5q23 167 29 266q-73 39 -120 87t-47 116q0 135 139 178q29 9 67 9l6 66q1 5 2.5 6.5t4.5 0.5l28 -17q3 -2 3 -8l-6 -49l60 -6l44 -7l18 -18l2 -13l-5 -107q0 -4 -4 -4
h-37q-4 0 -4 4q0 23 -8 49t-16 35zM375 147q0 62 -105 127q-20 -196 -28 -250h13q66 1 93 41t27 82zM153 548q0 -50 17 -82t78 -68q13 128 23 252h-13q-46 -1 -75.5 -31.5t-29.5 -70.5z" />
    <glyph glyph-name="percent" unicode="%" horiz-adv-x="705" 
d="M76 463q0 -75 23.5 -124.5t68.5 -49.5q37 0 59 43t22 96q0 76 -20 125t-61 49q-92 0 -92 -139zM4 437q0 83 52 141.5t132 58.5q57 0 93.5 -52.5t36.5 -130.5q0 -92 -49 -146t-126 -54q-63 0 -101 52t-38 131zM454 183q0 -75 23.5 -124.5t68.5 -49.5q37 0 59 43t22 96
q0 76 -20 125t-61 49q-92 0 -92 -139zM382 157q0 83 52 141.5t132 58.5q57 0 93.5 -52.5t36.5 -130.5q0 -92 -49 -146t-126 -54q-63 0 -101 52t-38 131zM126 -71q-6 6 -14 18l-12 18q-3 3 1 9q35 51 143.5 216.5t197 297t116.5 161.5q5 5 10 7q20 6 42 6q15 0 8 -9
q-39 -51 -112.5 -159t-131 -196.5t-141 -219t-97.5 -151.5q-3 -4 -10 2z" />
    <glyph glyph-name="ampersand" unicode="&#x26;" horiz-adv-x="795" 
d="M583 372q6 15 4.5 21t-13.5 6h-38q-10 0 -10 36q76 -2 101 -2q55 0 92 2q0 -36 -10 -36h-32q-32 0 -47 -27l-106 -186l158 -130q22 -19 52 -19h30q14 0 14 -39q-38 2 -55 2q-5 0 -45 -1t-50 -1q-12 0 -20 8l-52 43q-33 26 -79 64q-89 -125 -224 -125q-98 0 -158 50
t-60 149q0 58 33 101t110 88q-77 82 -77 157q0 59 50 115q48 54 124 54q64 0 107.5 -36.5t43.5 -103.5q0 -20 -6 -38.5t-12 -30t-24 -28t-25.5 -22.5t-33.5 -24.5t-33 -23.5q-5 -4 3 -12q43 -41 200 -172q3 5 22 37t28 47.5t21 39t17 37.5zM125 201q0 -60 56.5 -101.5
t123.5 -41.5q44 0 70 16t69 62q2 2 0 5q-147 122 -231 200l-5 5q-4 4 -10 0q-46 -39 -59.5 -69.5t-13.5 -75.5zM183 563q0 -32 10 -57t22 -40t43 -48q30 23 45 36.5t31.5 42.5t16.5 62q0 39 -25.5 73t-59.5 34q-39 0 -61 -27.5t-22 -75.5z" />
    <glyph glyph-name="quotesingle" unicode="'" horiz-adv-x="170" 
d="M51 691l59 35q2 3 8.5 1t7.5 -10q4 -66 -6 -154t-41 -113q-5 -4 -7 -4h-8q-2 0 -2 7q4 50 2 100.5t-16 125.5q-2 9 3 12z" />
    <glyph glyph-name="parenleft" unicode="(" horiz-adv-x="261" 
d="M14 262q0 290 212 451q5 3 7 1q8 -9 11 -17q1 -2 -1 -6q-167 -144 -167 -396q0 -268 161 -425q7 -6 4 -9q-2 -5 -11 -16q-6 -5 -12 1q-104 74 -154 188t-50 228z" />
    <glyph glyph-name="parenright" unicode=")" horiz-adv-x="261" 
d="M251 262q0 -114 -50 -228t-154 -188q-7 -6 -12 -1q-9 11 -11 16q-2 3 4 9q161 157 161 425q0 252 -167 396q-2 4 -1 6q3 8 11 17q2 2 7 -1q212 -161 212 -451z" />
    <glyph glyph-name="asterisk" unicode="*" horiz-adv-x="400" 
d="M56 517l96 36q-25 22 -59.5 50.5t-40.5 33.5q-7 6 -2 11q6 6 29 19q7 4 13 -1l92 -77l26 115q3 9 8 11q13 6 34 8q8 0 8 -7l-32 -136q78 32 140 51q2 1 3 -1t1 -5q0 -9 -8 -25t-15 -19q-13 -5 -49.5 -18t-58.5 -21q23 -19 59.5 -50t49.5 -41q9 -7 1 -11q-9 -4 -29 -7
t-26 1q-34 30 -84 70q-26 -123 -29 -135q-1 -6 -5 -6q-11 0 -22.5 19t-9.5 30q1 5 20 102q-86 -31 -130 -47l-8 -3q-8 0 -6 6q3 12 21 37q5 7 13 10z" />
    <glyph glyph-name="plus" unicode="+" 
d="M233 11l1 216h-195q-1 0 -2.5 3.5t-0.5 5.5q4 32 14 53q0 2 10 2h112h62v193q1 4 23 11t30 9q6 2 10 -2v-103q0 -90 1 -108h105h102q5 0 3 -8q-2 -9 -9.5 -32.5t-11.5 -23.5h-190v-83q0 -29 0.5 -68t0.5 -44q0 -10 -3 -10q-21 -10 -53 -14q-2 -1 -5.5 0.5t-3.5 2.5z" />
    <glyph glyph-name="comma" unicode="," horiz-adv-x="193" 
d="M153 92q22 -29 22 -92q0 -15 -8.5 -43.5t-18.5 -47.5q-21 -40 -51.5 -73t-40.5 -35q-6 -2 -16 2t-11 9q-1 3 7 11q32 36 48 66.5t16 69.5q0 16 -22 60q-6 14 -6.5 16.5t2.5 7.5q19 30 52 52q17 11 27 -3z" />
    <glyph glyph-name="hyphen" unicode="-" horiz-adv-x="336" 
d="M276 224l-208 -1q-1 0 -2.5 3.5t-0.5 5.5q4 32 15 55q0 2 9 1q18 -1 205 -1q4 -4 2 -10q-2 -8 -9 -30t-11 -23z" />
    <glyph glyph-name="period" unicode="." horiz-adv-x="169" 
d="M35 35q-2 17 -0.5 26t9.5 20q10 14 34 16q39 4 55 -15q8 -11 7 -46q-2 -24 -12 -33q-14 -13 -50 -13q-23 0 -35 16q-5 6 -8 29z" />
    <glyph glyph-name="slash" unicode="/" horiz-adv-x="430" 
d="M345 732q26 -21 35 -29q2 -1 0 -6q-20 -50 -87.5 -227.5t-123.5 -321t-73 -175.5l-6 -5q-19 -11 -43 -16q-6 -1 -7.5 1t0.5 6q79 172 299 772q2 4 6 1z" />
    <glyph glyph-name="zero" unicode="0" 
d="M130 377q0 -53 5.5 -104.5t19.5 -111t46 -96.5t78 -37q40 0 66.5 31.5t37.5 83t15 90.5t4 80q0 170 -40.5 249t-102.5 79q-63 0 -96 -73t-33 -191zM35 345q0 59 14.5 116t43 107.5t79 81.5t114.5 31q97 0 154 -87.5t57 -250.5q0 -165 -67.5 -260.5t-177.5 -95.5
q-109 0 -163 95.5t-54 262.5z" />
    <glyph glyph-name="one" unicode="1" 
d="M331 63q0 -13 10 -22t27 -9h58q11 0 11 -35q-55 3 -152 3q-49 0 -163 -3q0 35 10 35h64q17 0 27 9t10 22q3 49 3 95v415q0 25 -50 25h-41q-4 0 -4 3v23q0 7 4 8t76 21t73 20l10 -3l25 -26v-486z" />
    <glyph glyph-name="two" unicode="2" 
d="M402 -1q-252 1 -284 1q-62 0 -86 -2v1q-1 1 -2 3t-1.5 5t-0.5 7t1 8q16 13 74.5 72t77.5 84q5 7 31.5 40t36 46t29.5 43.5t28.5 50.5t16.5 48t8 54q0 63 -32.5 103t-89.5 40q-47 0 -99 -32l-8 -6q-19 -20 -23 -80q0 -3 -3 -4q-30 0 -44 2q-3 0 -3 3l-3 83q0 8 4 12
q9 6 24.5 19.5t31.5 24.5t38 22q66 33 132 33q73 0 121 -54t48 -132q0 -39 -28 -100.5t-93 -134.5q-128 -145 -139 -156q-14 -17 -14 -21q0 -5 9 -5q28 -2 135 -2q23 0 57 0.5t40 0.5q30 3 41 34q9 23 15 52q2 5 7 3q5 -1 35 -11q5 -2 5 -7q-17 -104 -25 -139q-4 -9 -14 -9
h-54zM400 5l1 -3v-2q0 3 -1 5z" />
    <glyph glyph-name="three" unicode="3" 
d="M221 -26q-61 0 -94 8.5t-52 35.5q-25 33 -27 115q0 5 5 7q30 10 35 11q5 2 7 -3q21 -75 41 -97q25 -29 98 -29q63 0 105 35t42 102q0 160 -173 160q-22 0 -34 -1q-7 0 -6 4q2 15 11 30q2 5 8 7q59 13 101.5 49t42.5 92q0 49 -32.5 84.5t-83.5 35.5q-36 0 -70 -18
q-15 -13 -20 -40q-1 -6 -4 -46q0 -2 -3 -4q-29 0 -43 2q-3 0 -3 3l-3 59q0 8 4 12q102 108 187 108q63 0 110 -43.5t47 -112.5q0 -15 -3 -30t-8.5 -27t-12.5 -23t-15 -20t-15.5 -16.5t-15 -13.5t-13 -9.5t-8.5 -6.5l-4 -2q-10 -8 5 -10q21 -6 44.5 -18t48.5 -32t41.5 -51
t16.5 -68q0 -97 -78.5 -165t-178.5 -74z" />
    <glyph glyph-name="four" unicode="4" 
d="M406 170q-10 0 -10 -10v-5q3 -174 3 -184q-28 2 -49 2q-33 0 -47 -2l2 185q0 7 -1.5 10.5t-3.5 3.5l-2 1h-283q-2 14 2 30l5 10l319 459q13 3 48 7q7 0 7 -6v-429q2 -8 10 -8h97l-22 -64h-75zM101 235h201q5 0 8 7v318l-6 -1q-195 -301 -207 -319q-3 -5 4 -5z" />
    <glyph glyph-name="five" unicode="5" 
d="M111 422l70 235q4 11 28 11h2q133 0 239 -3q9 0 7 -13l-11 -119l-3 -3q-14 -2 -46 -2q-3 2 -3 4l-4 49q-2 15 -9 15q-60 2 -89 2h-84q-4 0 -9 -17q-1 -2 -6.5 -22.5t-11.5 -42.5t-8 -32q-1 -3 -0.5 -6t1 -4.5t2.5 -3.5t3 -2.5t3 -2t3 -1.5l39 -20q38 -19 88.5 -47
t73.5 -45q4 -2 10 -6t21.5 -19.5t27.5 -33t21.5 -48t9.5 -64.5q0 -89 -76 -155.5t-172 -72.5h-6q-6 0 -17.5 0.5t-25.5 2.5t-30.5 6.5t-32 11t-30.5 18t-25 25.5q-24 34 -26 116q0 5 5 7q30 10 35 11q5 2 7 -3q17 -61 38 -83q53 -60 132 -60q68 0 104.5 37t36.5 109
q0 34 -16 57.5t-56 60.5q-23 19 -67.5 45.5t-77.5 43.5l-33 16l-26 15l-3 3t-4.5 10.5t1.5 19.5z" />
    <glyph glyph-name="six" unicode="6" 
d="M135 245q0 -90 39.5 -152t107.5 -62q59 0 90 46.5t31 108.5q0 72 -37 130.5t-108 58.5q-123 0 -123 -130zM428 729q4 2 7 -1q8 -8 11 -21q1 -2 -3 -5q-9 -4 -23.5 -12.5t-54 -36t-73 -56.5t-68 -74t-50.5 -90q-5 -12 -6 -23.5t4 -12.5q84 47 150 47q75 0 124 -61.5
t49 -148.5q0 -103 -66.5 -175t-171.5 -72q-163 0 -202 144q-19 46 -19 123q0 64 22.5 131t67.5 133.5t123 122.5t179 88z" />
    <glyph glyph-name="seven" unicode="7" 
d="M407 580q-148 -2 -263 -2q-27 -3 -39.5 -17.5t-19.5 -53.5q-1 -4 -4 -4h-41q-5 0 -5 4l22 133q3 15 15 15h35q349 1 366 1q8 0 10 -4.5t1 -8.5v-4l-23 -58q-267 -595 -272 -607q-2 -5 -5.5 -7t-5.5 -1h-3q-19 5 -31 13q-5 4 -6 9t0 8l2 3q265 560 270 572q3 7 -3 9z" />
    <glyph glyph-name="eight" unicode="8" 
d="M281 681q74 0 123.5 -46t49.5 -116q0 -42 -26 -80.5t-91 -82.5q-4 -3 0 -5q79 -50 107.5 -85.5t28.5 -91.5q0 -77 -58.5 -131.5t-154.5 -54.5q-89 0 -149 41.5t-60 125.5q0 76 139 174q3 1 3 3.5t-2 3.5q-61 41 -84.5 80t-23.5 86q0 84 61 132q60 47 137 47zM258 643
q-45 0 -71.5 -28t-26.5 -75q0 -51 30 -86t103 -77q5 -4 10 0q74 62 74 133q0 59 -33 96t-86 37zM282 31q43 0 76.5 29.5t33.5 68.5q0 55 -35.5 93.5t-126.5 89.5q-5 3 -10 0q-45 -38 -65 -71t-20 -72q0 -57 40.5 -97.5t106.5 -40.5z" />
    <glyph glyph-name="nine" unicode="9" 
d="M106 -45q-4 -2 -7 1q-8 8 -11 21q-1 2 3 5q9 4 23.5 12.5t54 36t73 56.5t68 74t50.5 90q12 37 5 39q-73 -41 -142 -41q-79 0 -129 58.5t-50 142.5q0 102 65.5 174t167.5 73q69 0 118 -32.5t73 -88.5q30 -49 30 -146q0 -64 -22.5 -131t-67.5 -133.5t-123 -122.5t-179 -88z
M399 434q0 34 -7.5 69.5t-23 70.5t-46 57t-70.5 22q-59 0 -90 -46.5t-31 -108.5q0 -72 41 -126t114 -54q60 0 86 26.5t27 89.5z" />
    <glyph glyph-name="colon" unicode=":" horiz-adv-x="203" 
d="M35 39q-2 17 -0.5 26t9.5 20q10 14 34 16q39 4 55 -15q8 -11 7 -46q-2 -24 -12 -33q-14 -13 -50 -13q-23 0 -35 16q-5 6 -8 29zM35 319q-2 17 -0.5 26t9.5 20q10 14 34 16q39 4 55 -15q8 -11 7 -46q-2 -24 -12 -33q-14 -13 -50 -13q-23 0 -35 16q-5 6 -8 29z" />
    <glyph glyph-name="semicolon" unicode=";" horiz-adv-x="193" 
d="M69 319q-2 17 -0.5 26t9.5 20q10 14 34 16q39 4 55 -15q8 -11 7 -46q-2 -24 -12 -33q-14 -13 -50 -13q-23 0 -35 16q-5 6 -8 29zM153 92q22 -29 22 -92q0 -15 -8.5 -43.5t-18.5 -47.5q-21 -40 -51.5 -73t-40.5 -35q-6 -2 -16 2t-11 9q-1 3 7 11q26 29 34 40t17 31t12 47
q3 28 -4 43q-8 16 -17 35q-8 17 -5 23q1 0 1 1q19 30 52 52q17 11 27 -3z" />
    <glyph glyph-name="less" unicode="&#x3c;" 
d="M508 465q-13 -10 -79 -44.5t-163.5 -84t-106.5 -53.5q-5 -3 0 -6q13 -8 185.5 -92t189.5 -100q3 -3 -6.5 -29.5t-16.5 -36.5q-5 -8 -10 -4q-36 27 -210 116t-255 122q-6 3 0 22.5t13 22.5q432 225 469 254q7 4 7 -6q0 -35 -10 -72q-1 -3 -7 -9z" />
    <glyph glyph-name="equal" unicode="=" 
d="M480 318l-441 -1q-1 0 -2.5 3.5t-0.5 5.5q4 32 15 55q0 2 9 1q18 -1 438 -1q4 -4 2 -10q-2 -8 -9 -30t-11 -23zM478 137l-438 -1q-3 0 -3 9q5 39 13 58q2 3 9 2q12 -2 437 -2q2 -1 2 -10q-1 -8 -9 -31.5t-11 -24.5z" />
    <glyph glyph-name="greater" unicode="&#x3e;" 
d="M88 90q13 10 79 44.5t163.5 84t106.5 53.5q5 3 0 6q-13 8 -185.5 92t-189.5 100q-3 3 6.5 29.5t16.5 36.5q5 8 10 4q36 -27 210 -116t255 -122q6 -3 0 -22.5t-13 -22.5q-432 -225 -469 -254q-7 -3 -7 6q0 35 10 72q1 2 7 9z" />
    <glyph glyph-name="question" unicode="?" horiz-adv-x="378" 
d="M46 534q-3 0 -3 3q-8 42 -8 73q0 44 22.5 63t82.5 19q75 0 137.5 -48.5t62.5 -122.5q0 -58 -26 -88q-33 -38 -125 -114q-44 -36 6 -83q10 -8 -1 -15q-18 -9 -27 -15q-8 -3 -22 7q-56 43 -54 90q0 13 9 20q71 50 131 103q16 15 26.5 37.5t10.5 39.5q-1 50 -47.5 83
t-101.5 36q-29 -3 -29 -20q-1 -14 -1 -62q0 -2 -3 -4h-7q-7 -1 -17 -1.5t-16 -0.5zM128 43q0 27 12 37q12 12 39 14q29 2 41 -12q13 -12 11 -39q-1 -19 -13 -34q-12 -16 -45 -16q-19 0 -35 19q-10 15 -10 31z" />
    <glyph glyph-name="at" unicode="@" horiz-adv-x="770" 
d="M406 -16q-91 1 -161.5 29t-111.5 69t-67 94.5t-35 97.5t-9 85q0 146 105 250t262 104q149 0 252 -91.5t103 -221.5q0 -121 -46.5 -195.5t-119.5 -74.5q-27 0 -48 4t-31.5 8t-19.5 14.5t-10.5 13.5l-7.5 15q-4 8 -6.5 21t-2.5 22l-1 10q-16 -8 -41.5 -26.5t-45 -28.5
t-38.5 -10q-40 0 -64.5 28t-24.5 68q0 18 4.5 31t15 21.5t17.5 12.5t22 10q45 17 155 39v58q0 26 -26 52.5t-71 26.5q-4 0 -41 -10q-9 -11 -10 -22q-2 -15 -3 -53q0 -3 -2 -3q-25 0 -35 1q-2 0 -2 3l-1 50q0 8 2 9q1 0 15 11.5t30.5 23t38 21.5t38.5 10q41 0 83.5 -24
t42.5 -75v-139q0 -13 0.5 -40t0.5 -42q2 -16 4 -25t9 -21.5t22.5 -18.5t39.5 -6q55 0 84.5 60t29.5 153q0 130 -91.5 213.5t-233.5 83.5q-135 0 -211.5 -96.5t-76.5 -237.5q0 -148 94 -234.5t247 -86.5q54 0 100.5 12.5t65.5 24.5l19 13q4 3 5 -1q2 -1 0 -18t-8 -20
q-1 0 -10 -4.5t-21 -10t-31.5 -12.5t-40 -12.5t-47.5 -9t-54 -3.5zM451 266v90q-16 -4 -114 -33q-24 -7 -32.5 -18.5t-8.5 -34.5q0 -22 11.5 -32t39.5 -10q30 0 104 38z" />
    <glyph glyph-name="A" unicode="A" horiz-adv-x="721" 
d="M369 577l-92 -251q1 -1 4 -1h170q3 0 5 2zM731 37q10 0 10 -40q-55 3 -140 3q-26 0 -140 -3q0 40 10 40h40q9 0 18 1.5t16 8t3 17.5q-34 98 -73 212q-2 1 -5 1h-208q-3 0 -4 -1l-77 -211q-5 -12 5.5 -19.5t32.5 -7.5h47q11 0 11 -40q-55 3 -116 3q-26 0 -140 -3
q0 40 10 40h48q11 0 25 7.5t19 19.5q208 542 238 628l8 -1h6.5h8h7.5q18 0 27 1q17 -59 121 -340.5t110 -288.5q14 -27 41 -27h41z" />
    <glyph glyph-name="B" unicode="B" horiz-adv-x="646" 
d="M263 690q72 2 125 2q75 0 132 -38t57 -114q0 -84 -77 -133q-17 -11 -46 -20q47 -6 82.5 -25t54 -44t27 -49t8.5 -46q0 -118 -111 -187q-61 -38 -163 -38q-17 0 -46 1t-40 1h-83q-16 0 -130 -3q0 42 10 42h48q26 0 40.5 8.5t14.5 19.5q2 49 2 95v464q0 11 -13.5 19
t-25.5 8h-48q-10 0 -10 40q114 -3 140 -3h52zM370 344h-100q-6 0 -8 -5v-177q0 -23 3 -80q4 -22 32 -34t70 -12q70 0 113 35.5t43 105.5q0 74 -40 118.5t-113 48.5zM320 654q-55 0 -57 -24l-1 -4v-230q2 -4 8 -4h78q64 0 97 28.5t33 99.5q0 62 -45 98t-113 36z" />
    <glyph glyph-name="C" unicode="C" horiz-adv-x="752" 
d="M669 9q-134 -30 -219 -30q-32 0 -71 6.5t-94 30t-98 60t-74 105t-31 157.5q0 69 17 126.5t43 95t62.5 66.5t70.5 44.5t71.5 25t61.5 12t44 2.5q72 0 229 -18l21 -20q4 -2 4 -10q0 -3 -4 -57t-5 -59q-1 -4 -6 -4h-38q-4 0 -5 4q1 12 -8 34q-8 22 -20.5 36t-24 19.5
t-33.5 12.5q-52 18 -122 18q-114 0 -179.5 -86t-65.5 -210q0 -19 1.5 -38.5t8 -55.5t18 -66.5t34 -65.5t53.5 -59.5t79 -40.5t108 -16q46 0 88 22t60 64q7 17 15 52q2 5 7 3q5 -1 35 -11q5 -2 5 -7q-16 -98 -24 -133q-3 -6 -14 -9z" />
    <glyph glyph-name="D" unicode="D" horiz-adv-x="814" 
d="M767 363q-3 -161 -109 -264.5t-290 -103.5q-17 0 -74.5 2.5t-82.5 2.5q-120 0 -158 -1q0 43 10 43h48q26 0 40.5 8.5t14.5 19.5q2 26 2 299q0 30 -0.5 116t-0.5 141q0 11 -13.5 19t-25.5 8h-47q-10 0 -10 40q38 -1 140 -1q24 0 76 -2q53 2 152 2q137 0 232.5 -96.5
t95.5 -232.5zM658 321q-1 93 -24.5 158.5t-67.5 102t-98.5 52.5t-124.5 16q-15 0 -38 -1q-14 -1 -28 -8t-14 -19q0 -55 -1 -138t-1 -113q0 -86 0.5 -151t0.5 -97v-38q8 -43 158 -43q112 0 175 81t63 198z" />
    <glyph glyph-name="E" unicode="E" horiz-adv-x="611" 
d="M456 0h-310q-16 0 -130 -3q0 42 10 42h48q26 0 40.5 8.5t14.5 19.5q2 26 2 58q0 5 -0.5 16.5t-0.5 17.5v469q0 11 -13.5 19t-25.5 8h-47q-10 0 -10 40q114 -3 140 -3h336l18 -19q3 -2 3 -10l-5 -105q0 -4 -5 -4l-40 -2q-4 0 -4 4q-1 46 -13.5 67t-53.5 21h-157
q-26 0 -28 -27v-237q1 -3 7 -3h156q62 0 62 40l4 31q1 8 13.5 11t25.5 -5q-8 -51 -8 -99q0 -35 2 -109q-13 -7 -25 -3t-12 15v26q0 22 -19 33.5t-43 11.5h-156q-5 0 -7 -4v-250q6 -28 32 -28h181q26 0 43.5 11t37.5 50q7 13 15 52q2 5 7 3q5 -1 35 -11q5 -2 5 -7
q-16 -98 -24 -133q-3 -8 -14 -9q-33 -3 -87 -3z" />
    <glyph glyph-name="F" unicode="F" horiz-adv-x="579" 
d="M461 245v27q0 21 -19 31.5t-43 10.5h-165q-6 0 -8 -5v-150l2 -95q0 -10 13.5 -18.5t26.5 -8.5h47q10 0 10 -40q-55 3 -149 3q-26 0 -140 -3q0 40 10 40h48q12 0 24.5 8t12.5 19q1 49 1 95v469q0 11 -13.5 19t-25.5 8h-47q-10 0 -10 40q114 -3 140 -3h352l18 -19
q3 -2 3 -10l-5 -101q0 -4 -5 -4l-40 -2q-4 0 -4 4q-1 45 -13.5 64.5t-53.5 19.5h-171q-28 0 -30 -27l-1 -251q2 -4 8 -4h165q25 0 43.5 10t18.5 32l4 32q1 8 13.5 10.5t25.5 -5.5q-8 -51 -8 -98q0 -35 2 -109q-14 -7 -25.5 -3.5t-11.5 14.5z" />
    <glyph glyph-name="G" unicode="G" horiz-adv-x="759" 
d="M658 13l-32 -9l-121 -20q-35 -5 -90 -5q-32 0 -71 6.5t-94 30t-98 60t-74 105t-31 157.5q0 163 102 268t278 105q85 0 219 -19l22 -21q3 -2 3 -10l-10 -115q0 -4 -5 -4h-40q-4 0 -4 4q1 36 -19 61.5t-54 37.5t-66 17t-68 5q-87 0 -149 -55q-41 -37 -64.5 -89t-27.5 -81.5
t-4 -54.5q0 -78 16.5 -140.5t51 -112.5t94 -77.5t140.5 -28.5q50 0 76 8.5t30 31.5q3 19 3 44l1 108q0 27 -34 31l-77 11q-10 1 -10 36q56 -3 146 -3q26 0 140 3v-8v-7v-6t-0.5 -5.5t-1.5 -4t-3 -3.5t-4 -1l-36 -8q-27 -6 -27 -35l1 -197q0 -7 -8 -10z" />
    <glyph glyph-name="H" unicode="H" horiz-adv-x="838" 
d="M268 37h47q10 0 10 -40q-55 3 -149 3q-26 0 -140 -3q0 40 10 40h48q12 0 24.5 8t12.5 19l2 95v469q0 11 -13.5 19t-25.5 8h-48q-10 0 -10 40q114 -3 140 -3q94 0 149 3q0 -40 -10 -40h-47q-12 0 -26 -8t-15 -19v-248q2 -4 8 -4h373q5 0 7 5v247q0 10 -13.5 18.5
t-25.5 8.5h-49q-10 0 -10 40q114 -3 140 -3q93 0 149 3q0 -40 -10 -40h-47q-12 0 -25.5 -8.5t-14.5 -18.5v-469l3 -95q0 -11 12.5 -19t24.5 -8h47q10 0 10 -40q-56 3 -149 3q-26 0 -140 -3q0 40 10 40h49q12 0 24.5 8t12.5 19l2 95v166q0 3 -7 3h-373q-5 0 -8 -5v-164
q0 -82 4 -94q0 -11 12.5 -19.5t24.5 -8.5z" />
    <glyph glyph-name="I" unicode="I" horiz-adv-x="361" 
d="M315 655h-47q-12 0 -26 -8t-15 -19v-469l3 -95q0 -10 13 -18.5t25 -8.5h47q10 0 10 -40q-55 3 -149 3q-26 0 -140 -3q0 40 10 40h48q12 0 24.5 8.5t12.5 18.5l2 95v469q0 11 -13.5 19t-25.5 8h-48q-10 0 -10 40q114 -3 140 -3q94 0 149 3q0 -40 -10 -40z" />
    <glyph glyph-name="J" unicode="J" horiz-adv-x="375" 
d="M339 655h-47q-14 0 -27 -7t-12 -20v-193l1 -211q0 -106 -12 -211q0 -4 -2.5 -25.5t-3.5 -28t-3.5 -25t-5.5 -28t-7 -25t-9 -28t-12 -24.5q-23 -43 -54 -79q-1 -1 -3 -3.5t-3.5 -3.5t-3 -2.5t-3 -2.5l-3 -2t-3.5 -1t-4.5 -0.5t-5.5 -0.5l-106 1l-4 4q-2 20 -2 65q1 4 5 4
q43 3 106 12q27 4 33 21q6 14 6 46v337q1 181 1 211v193q0 12 -12 19.5t-24 7.5h-49q-10 0 -10 40q114 -3 140 -3q94 0 149 3q0 -40 -10 -40z" />
    <glyph glyph-name="K" unicode="K" horiz-adv-x="758" 
d="M315 655h-47q-13 0 -27 -8.5t-15 -18.5v-469l4 -95q0 -11 13 -19t25 -8h47q10 0 10 -40q-55 3 -149 3q-26 0 -140 -3q0 40 10 40h48q12 0 25 8t13 19l2 95v469q0 10 -14 18.5t-26 8.5h-48q-10 0 -10 40q114 -3 140 -3q94 0 149 3q0 -40 -10 -40zM669 656h-33
q-36 0 -86 -55l-216 -238l295 -314q17 -19 57 -19h49q10 0 10 -32q-38 2 -80 2q-5 0 -52 -1t-56 -1q-14 0 -21 8q-10 12 -18.5 22.5t-11.5 14t-5 6.5q-234 261 -251 275q-6 6 -14 10q-4 11 0 20q22 7 47 26q44 40 95 95.5t80 90.5l30 35q22 22 22 35q0 19 -49 19h-40
q-10 0 -10 40q114 -3 138 -3q56 0 130 4q0 -40 -10 -40z" />
    <glyph glyph-name="L" unicode="L" horiz-adv-x="613" 
d="M263 -1h-69q-44 0 -158 -3q0 40 10 40h66q12 0 24.5 8t12.5 19q3 46 3 92v473q0 10 -14 18.5t-26 8.5h-48q-10 0 -10 41q2 0 57 -2t83 -2q100 0 149 4q0 -41 -10 -41h-47q-13 0 -27 -8.5t-14 -18.5v-473l4 -92q0 -13 13 -13q84 -7 196 -7q26 0 43.5 11t37.5 50
q7 13 15 52q2 5 7 3q5 -1 35 -11q5 -2 5 -7q-16 -98 -24 -133q-3 -8 -14 -9q-33 -3 -87 -3q-24 0 -213 3z" />
    <glyph glyph-name="M" unicode="M" horiz-adv-x="1000" 
d="M286 37h47q10 0 10 -40q-55 3 -149 3q-26 0 -140 -3q0 40 10 40h48q35 0 49 44q5 16 9 78.5t6.5 139.5t4 151.5t2.5 125.5l1 50q0 13 -17 20t-32 7h-48q-10 0 -10 40q114 -3 140 -3q10 0 29.5 0.5t30.5 0.5l17 -43l229 -498q15 32 38.5 83.5t74 161.5t84.5 183l33 72
l20 43q12 0 25 -0.5t23 -0.5q21 0 135 3q0 -40 -10 -40h-48q-13 0 -27 -8.5t-14 -18.5q4 -231 7 -372t4 -166l2 -26q0 -11 12 -19t24 -8h48q10 0 10 -40q-56 3 -149 3q-26 0 -140 -3q0 40 10 40h48q12 0 24.5 8t12.5 19q1 10 1 76q0 132 -5 407l-252 -544q-1 -3 -6 -3h-9
l-4 3l-266 574q-4 -154 -4 -352q0 -92 3 -144q2 -24 20 -34t38 -10z" />
    <glyph glyph-name="N" unicode="N" horiz-adv-x="855" 
d="M268 37h47q10 0 10 -40q-55 3 -149 3q-26 0 -140 -3q0 40 10 40h48q18 0 31.5 11.5t16.5 32.5q7 42 7 376v169q0 16 -18.5 22.5t-36.5 6.5h-48q-10 0 -10 40q114 -3 140 -3h45l449 -558v266q0 162 -10 228q-7 27 -42 27h-63q-10 0 -10 40q56 -3 149 -3q11 0 125 3
q0 -40 -10 -40h-33q-15 0 -29 -6.5t-17 -20.5q-10 -72 -10 -228v-402q-26 2 -36 2l-31 -2q-134 181 -449 567q0 -402 5 -484q1 -22 20.5 -33t38.5 -11z" />
    <glyph glyph-name="O" unicode="O" horiz-adv-x="802" 
d="M418 708q138 0 237.5 -104.5t99.5 -249.5q0 -170 -97.5 -271.5t-250.5 -101.5q-92 0 -164 32.5t-113 87t-62 118t-21 132.5q0 154 101 255.5t270 101.5zM380 651q-103 0 -161 -75.5t-58 -189.5q0 -177 79.5 -264t200.5 -87q36 0 69.5 16t64 49.5t49 93.5t18.5 139
q0 140 -74.5 228.5t-187.5 89.5z" />
    <glyph glyph-name="P" unicode="P" horiz-adv-x="600" 
d="M228 692q72 2 125 2q60 0 104.5 -18.5t68 -49t34 -62.5t10.5 -66q0 -43 -20 -94t-74 -87q-66 -45 -146 -45h-95q-8 0 -8 -9v-104l4 -95q0 -11 12.5 -19t24.5 -8h47q10 0 10 -40q-55 3 -149 3q-26 0 -140 -3q0 40 10 40h48q12 0 24.5 8t12.5 19q3 49 3 95v469
q0 12 -12.5 19.5t-27.5 7.5h-48q-10 0 -10 40q114 -3 140 -3h52zM227 632v-309q0 -5 7 -5h84q13 0 24 1t36.5 9.5t42.5 24t31 49t14 79.5q0 81 -47 128t-133 47q-57 0 -59 -24z" />
    <glyph glyph-name="Q" unicode="Q" horiz-adv-x="827" 
d="M417 708q138 0 237.5 -104.5t99.5 -249.5q0 -136 -64.5 -230t-172.5 -127q9 -3 19.5 -7t19.5 -7.5t18.5 -8t17.5 -8.5l15 -7.5t12.5 -6.5t9.5 -5l6 -3l2 -1q163 -81 265 -81q70 0 107 18q7 4 9 2l11 -13q2 -3 -2 -7q-15 -13 -62 -37q-56 -28 -142 -28q-127 0 -225 71
q-131 96 -214 114q-151 0 -244.5 106.5t-93.5 262.5q0 154 101 255.5t270 101.5zM379 651q-103 0 -161 -75.5t-58 -189.5q0 -177 79.5 -264t200.5 -87q36 0 69.5 16t64 49.5t49 93.5t18.5 139q0 140 -74.5 228.5t-187.5 89.5z" />
    <glyph glyph-name="R" unicode="R" horiz-adv-x="702" 
d="M228 692q72 2 125 2q97 0 147 -51.5t50 -117.5q0 -114 -98 -173l-37 -23q1 -1 25 -34.5t73.5 -103t97.5 -135.5q14 -19 52 -19h30q14 0 14 -39q-38 2 -55 2q-5 0 -46 -1t-51 -1q-14 0 -20 8q-8 9 -35 43q-107 166 -151 229q-14 19 -32 20h-82q-4 0 -6 -2t-2 -4v-2v-131
l4 -95q0 -11 12.5 -19t24.5 -8h47q10 0 10 -40q-55 3 -149 3q-26 0 -140 -3q0 40 10 40h48q12 0 24.5 8t12.5 19q3 49 3 95v469q0 10 -14 18.5t-26 8.5h-48q-10 0 -10 40q114 -3 140 -3h52zM333 346q17 0 35.5 7t37.5 22.5t31 47t12 73.5q0 160 -163 160q-57 0 -59 -25v-279
q0 -6 8 -6h98z" />
    <glyph glyph-name="S" unicode="S" horiz-adv-x="516" 
d="M368 638q-1 1 -3 3.5t-10 8.5t-18 10.5t-28.5 8.5t-40.5 4q-51 0 -85 -28.5t-34 -77.5q0 -53 18 -86t84 -71q21 -12 66 -35.5t63.5 -35.5t44 -35.5t35.5 -52.5t10 -69q0 -95 -73 -148.5t-178 -53.5q-70 0 -158 33q-3 4 -3 8q-1 4 -9.5 60.5t-8.5 62.5q0 5 4 6l38 11
q4 1 6 -3q3 -9 6.5 -22t6 -20t7 -17.5t10.5 -21.5q1 -2 4 -6t13.5 -13.5t24.5 -17t38.5 -13.5t53.5 -6q58 0 93 35.5t35 92.5q0 76 -145 153q-174 94 -174 206q0 95 62.5 148t160.5 53q8 0 16 -0.5t15.5 -0.5t15 -1t13.5 -1.5t11.5 -1t9.5 -1.5t7 -1h4l2 -1l46 -7l18 -19
l3 -13l-6 -112q0 -4 -4 -4h-8h-10.5h-10h-6.5h-3q-4 0 -4 4q-1 24 -9 51t-16 37z" />
    <glyph glyph-name="T" unicode="T" horiz-adv-x="705" 
d="M407 644q-8 -1 -8 -12v-473l4 -95q0 -13 14 -20t28 -7h55q10 0 10 -40q-56 3 -159 3q-47 0 -161 -3q0 40 10 40h61q14 0 28 7t14 20q3 49 3 95v477q-2 7 -8 8h-134q-67 0 -85 -98q-1 -4 -4 -4l-35 1q-5 0 -5 4l8 115l3 10l18 21l107 -1h366l107 1l23 -22q3 -2 3 -10
l-6 -115q0 -4 -5 -4h-32q-3 0 -4 4q-11 53 -27.5 75.5t-51.5 22.5h-137z" />
    <glyph glyph-name="U" unicode="U" horiz-adv-x="817" 
d="M314 655h-47q-14 0 -25 -9t-11 -26v-338q0 -46 9.5 -85t32 -74.5t67 -56t106.5 -20.5t103.5 20t60.5 57t26 73.5t7 85.5v136q0 169 -7 202q-4 15 -22 25t-43 10h-29q-10 0 -10 40q56 -3 131 -3q73 0 129 3q0 -40 -10 -40h-29q-19 0 -35.5 -10.5t-17.5 -24.5
q-4 -28 -4 -104v-234q0 -33 -4 -65t-20 -76t-42.5 -76t-77 -55t-117.5 -23q-167 0 -234 69.5t-67 225.5v338q0 16 -12.5 25.5t-28.5 9.5h-48q-10 0 -10 40q114 -3 140 -3q93 0 149 3q0 -40 -10 -40z" />
    <glyph glyph-name="V" unicode="V" horiz-adv-x="742" 
d="M63 658h-52q-11 0 -11 36q78 -2 168 -2q86 0 123 2q0 -36 -11 -36h-62q-17 0 -17 -10q0 -6 193 -535q205 524 205 528q0 16 -33 16h-67q-10 0 -10 36q76 -2 164 -2q55 0 92 2q0 -36 -10 -36h-40q-31 0 -40 -27q-229 -553 -258 -639q-18 2 -32 2q-11 0 -29 -2
q-19 62 -125 355t-112 299q-8 13 -36 13z" />
    <glyph glyph-name="W" unicode="W" horiz-adv-x="1000" 
d="M39 658h-48q-11 0 -11 36q78 -2 168 -2q86 0 123 2q0 -36 -11 -36h-62q-5 0 -9 -1t-6 -4t-1 -8q89 -388 135 -522l188 536q15 -3 26 -3q20 0 29 3q12 -45 73.5 -242t92.5 -286q146 503 146 509q0 18 -31 18h-68q-10 0 -10 36q76 -2 165 -2q55 0 92 2q0 -36 -10 -36h-41
q-30 0 -40 -27q-147 -479 -193 -640q-16 2 -32 2t-34 -2q-61 203 -164 511q-152 -401 -182 -511q-18 2 -32 2q-16 0 -34 -2q-10 34 -55 196t-84.5 305.5t-43.5 151.5q-8 14 -36 14z" />
    <glyph glyph-name="X" unicode="X" horiz-adv-x="708" 
d="M702 37q10 0 10 -40q-56 3 -158 3q-26 0 -140 -3q0 40 10 40h33q16 0 23 6.5t0 20.5q-63 112 -135 236q-119 -176 -151 -236q-14 -27 15 -27h55q10 0 10 -40q-55 3 -128 3q-26 0 -140 -3q0 40 10 40h49q24 0 51 27q84 93 205 277q-151 260 -176 287q-24 27 -56 27h-48
q-10 0 -10 40q114 -3 140 -3q93 0 149 3q0 -40 -10 -40h-36q-28 0 -11 -27q53 -96 120 -211q95 136 126 211q11 27 -24 27h-48q-10 0 -10 40q114 -3 116 -3q94 0 149 3q0 -40 -11 -40l-42 -1q-32 0 -55 -27q-60 -67 -178 -249q141 -241 203 -314q19 -27 52 -27h41z" />
    <glyph glyph-name="Y" unicode="Y" horiz-adv-x="628" 
d="M379 93q5 -56 40 -56h47q10 0 10 -40q-56 3 -154 3q-33 0 -147 -3q0 40 10 40h51q16 0 29.5 15t13.5 41q0 20 1 70t1 84q0 38 -10 58l-14 27q-118 234 -164 296q-18 27 -45 27h-48q-10 0 -10 40q114 -3 140 -3q78 0 133 3q0 -40 -10 -40h-39q-11 0 -11 -9q0 -6 5 -18
q61 -136 145 -283q38 59 89 155t62 128q7 14 -2 20.5t-26 6.5h-48q-10 0 -10 40q114 -3 127 -3q73 0 128 3q0 -40 -10 -40h-39q-26 0 -49 -27q-23 -28 -57 -84t-78.5 -135.5t-59.5 -104.5q-4 -11 -4 -84q0 -92 3 -127z" />
    <glyph glyph-name="Z" unicode="Z" horiz-adv-x="608" 
d="M459 -2q-19 0 -91 1t-168.5 2t-125.5 1l-27 26q15 22 124 181t186.5 276t93.5 148q5 8 -1 8h-270q-42 0 -58.5 -18.5t-26.5 -69.5q-1 -4 -4 -4l-40 2q-5 0 -5 4l13 108l3 10l18 19h107h91h180l91 1l27 -26q-24 -45 -204.5 -318.5t-192.5 -292.5q-2 -3 -2.5 -5t1.5 -2.5
t3.5 -1t5.5 -0.5h6q11 -1 125 -1h141q44 0 61 21t35 81q1 4 4 4l39 -11q5 -1 5 -6l-15 -108q-5 -29 -26 -29h-103z" />
    <glyph glyph-name="bracketleft" unicode="[" horiz-adv-x="261" 
d="M286 673q-64 -2 -136 -2q-4 0 -4 -7q-3 -33 -3 -377q0 -317 3 -383q2 -11 10 -13q15 -5 135 -5q5 0 5 -4q0 -43 -8 -44h-154q-34 3 -41 7l-2 5v865q0 5 5 5h193q5 0 5 -3q0 -43 -8 -44z" />
    <glyph glyph-name="backslash" unicode="\" horiz-adv-x="430" 
d="M75 732q4 3 6 -1q220 -600 299 -772q2 -4 0.5 -6t-7.5 -1q-24 5 -43 16l-6 5q-17 32 -73 175.5t-123.5 321t-87.5 227.5q-2 5 0 6q9 8 35 29z" />
    <glyph glyph-name="bracketright" unicode="]" horiz-adv-x="261" 
d="M100 673q-8 1 -8 44q0 3 5 3h193q4 0 6 -5v-865l-3 -5q-7 -4 -41 -7h-154q-8 1 -8 44q0 4 5 4q120 0 135 5q8 2 10 13q3 66 3 383q0 344 -3 377q0 7 -4 7q-72 0 -136 2z" />
    <glyph glyph-name="asciicircum" unicode="^" 
d="M141 345q-2 -3 -8.5 -5t-15 -2.5t-16 -0.5t-15.5 0.5t-10 0.5q-8 0 -8 6q17 21 93.5 167.5t96.5 192.5q2 4 4 5q9 4 32 9q4 0 7 -5q26 -58 92 -195.5t85 -168.5q1 -1 -2 -6q-8 -5 -31 -12t-25 -5q-10 9 -41 66t-67 128t-36 72l-6 1l-1 -1q-113 -230 -128 -247z" />
    <glyph glyph-name="underscore" unicode="_" 
d="M530 -174v-57h-529v57h529z" />
    <glyph glyph-name="grave" unicode="`" horiz-adv-x="298" 
d="M137 680q8 4 73 12q11 1 13 -4q0 -1 11.5 -33.5t23 -65.5t12.5 -35q2 -6 -1 -9q-1 -1 -7 -6.5t-10 -8.5q-6 -2 -10 3q-15 14 -106 135q-8 9 1 12z" />
    <glyph glyph-name="a" unicode="a" horiz-adv-x="458" 
d="M298 98v107q-86 -19 -139 -43q-43 -19 -43 -57q0 -26 15.5 -42t37.5 -16q61 0 129 51zM69 373q0 9 5 13q2 1 15 11t27 19.5t32 20t37.5 17t36.5 6.5q23 0 48.5 -6t52 -19t43.5 -38.5t17 -58.5v-167l2 -98q3 -38 38 -38h19q6 0 6 -4v-21q0 -7 -5 -8q-110 -17 -115 -17
l-10 3l-20 22v53q-80 -76 -146 -76q-50 0 -83 32.5t-33 84.5q0 33 24 55.5t56 33.5q84 30 182 45v73q-1 36 -27.5 64.5t-87.5 28.5q-48 0 -53 -29q-3 -16 -7 -70q0 -3 -3 -4q-32 0 -46 2q-3 0 -3 3z" />
    <glyph glyph-name="b" unicode="b" horiz-adv-x="549" 
d="M155 722l20 -20v-322q8 9 22 22.5t53 35.5t73 22q180 0 180 -211q0 -107 -65 -185t-172 -78q-54 0 -95 11.5t-45 11.5t-9.5 -4.5t-8.5 -8.5l-4 -5l-24 8q9 81 9 157v491q0 24 -28 24h-51q-4 0 -4 4v22q0 7 4 8q2 0 36 5.5t66 10t33 4.5zM175 318v-162q0 -42 5 -80
q2 -15 32 -31t61 -16q69 0 106 48.5t37 132.5q0 35 -5 65t-17.5 59.5t-37.5 46.5t-61 17q-41 0 -79.5 -26t-40.5 -54z" />
    <glyph glyph-name="c" unicode="c" horiz-adv-x="470" 
d="M415 82q25 -23 16 -32l-10 -9q-60 -54 -158 -54q-70 0 -121.5 37t-73.5 88t-22 107q1 107 62.5 174t173.5 67q33 0 68 -10.5t55 -25.5q1 0 1.5 -1t1.5 -4.5t0 -8.5l-12 -99q0 -3 -4 -3h-4t-4.5 -0.5t-5 -0.5h-5h-5h-5h-4.5h-3.5h-2.5h-1q-4 0 -4 4q-3 41 -7 60
q-11 48 -86 48q-69 0 -94 -51.5t-26 -146.5q0 -69 42 -127t111 -58q62 0 104 29z" />
    <glyph glyph-name="d" unicode="d" horiz-adv-x="565" 
d="M439 722l20 -20v-546l5 -99q1 -17 27 -17h32q5 0 5 -3v-23q0 -7 -5 -8q-3 0 -33.5 -5.5t-60 -10.5t-30.5 -5l-10 3l-20 22v55q-79 -79 -145 -79q-82 0 -130 62t-48 148q0 105 66.5 184t170.5 79q53 0 90 -15v203q0 25 -28 25h-50q-5 0 -5 3v22q0 7 5 8q120 20 134 20z
M372 125q1 11 1 31v158q-2 22 -4 28q-31 72 -110 72q-62 0 -94 -58t-32 -125q0 -36 4 -64t15.5 -57.5t36.5 -45.5t63 -16q32 0 72 25.5t48 51.5z" />
    <glyph glyph-name="e" unicode="e" horiz-adv-x="475" 
d="M416 83q24 -22 15 -31q-65 -65 -168 -65q-112 0 -164.5 65.5t-52.5 169.5q1 100 66.5 169t157.5 69q85 0 127.5 -53.5t42.5 -155.5l-307 -15q1 -87 41 -139t114 -52q78 0 128 38zM254 419q-110 0 -120 -147l218 19q0 49 -25 88.5t-73 39.5z" />
    <glyph glyph-name="f" unicode="f" horiz-adv-x="368" 
d="M115 215q0 27 1 70q0 14 3 95q-2 19 -15 19l-42 1q-4 0 -4 3v26q0 7 4 8q1 0 13.5 2.5t25.5 4.5t20 3q3 82 22.5 133t76.5 90q80 54 121 55q47 0 65 -37l1 -11l-14 -93q0 -3 -4 -3h-7.5h-9h-8h-5.5h-2q-4 0 -4 4l-3 34q-3 24 -17 32.5t-43 8.5q-48 0 -69 -51
q-20 -47 -22 -157q2 -5 7 -5h95l-17 -48h-76q-9 0 -9 -14q0 -57 5 -332q2 -20 14 -20h63q10 0 10 -36q-55 3 -133 3q-4 0 -118 -3q0 36 10 36h48q13 0 15 19z" />
    <glyph glyph-name="g" unicode="g" horiz-adv-x="478" 
d="M311 40q51 -5 93.5 -33.5t42.5 -70.5q0 -72 -42 -119q-30 -33 -85.5 -60t-113.5 -27q-70 0 -125.5 43.5t-55.5 96.5q0 32 17 54q16 20 94 72q-67 27 -68 61q0 8 6 14l80 64q-110 25 -110 158q0 76 57 121.5t129 45.5q44 0 88 -17q45 -15 84 -11q25 0 44 19q4 4 6 1
l16 -22l1 -6q-2 -22 -16 -38t-35 -16q-17 0 -28 4t-14.5 7t-5.5 2q-2 -2 0 -7q17 -36 17 -79q0 -64 -53.5 -114t-119.5 -53h-5q-45 -3 -45 -40q0 -16 13 -28.5t43 -14.5q43 -2 91 -7zM162 -29q-1 -1 -7.5 -5.5t-8.5 -6.5t-8 -6.5t-8.5 -7l-7.5 -7.5t-7.5 -8.5t-6 -8t-5.5 -9
t-3 -9.5t-1 -10q0 -29 16.5 -49.5t43 -31t52 -15t50.5 -4.5q54 0 93.5 25.5t39.5 68.5t-47.5 67t-130.5 26q-42 0 -54 -9zM199 424q-44 0 -61.5 -32t-17.5 -73q0 -148 117 -148q45 0 59.5 26.5t14.5 70.5q0 155 -112 156z" />
    <glyph glyph-name="h" unicode="h" horiz-adv-x="620" 
d="M350 33h49q12 0 14 19q5 54 5 100v134q0 24 -2 38.5t-10.5 32.5t-29 27.5t-53.5 9.5q-43 0 -82 -26t-41 -54v-162l5 -100q0 -9 3.5 -13.5t7.5 -4.5l3 -1h47q10 0 10 -36q-73 3 -122 3l-117 -3q0 36 10 36h48q15 -1 15 19q4 54 4 100v491q0 25 -28 25h-40q-5 0 -5 3v26
q0 3 5 4l124 21l10 -4l20 -20v-321q1 0 10 9t23 20.5t32.5 23t42.5 19.5t48 8q53 0 100.5 -36t47.5 -94v-175l4 -100q2 -19 15 -19h47q10 0 10 -36q-56 3 -122 3q-4 0 -118 -3q0 36 10 36z" />
    <glyph glyph-name="i" unicode="i" horiz-adv-x="313" 
d="M107 609q0 27 12 37q12 12 39 14q29 2 41 -12q13 -12 11 -39q-1 -19 -13 -34q-12 -16 -45 -16q-19 0 -35 19q-10 15 -10 31zM37 -3q0 36 10 36h48q15 -1 15 19q4 54 4 100v227q0 24 -28 24h-40q-5 0 -5 4v22q0 7 5 8l32 5q33 6 62 11t30 5l10 -3l20 -22v-281l3 -100
q0 -8 4 -13t8 -5l4 -1h48q10 0 10 -36q-74 3 -123 3z" />
    <glyph glyph-name="j" unicode="j" horiz-adv-x="292" 
d="M190 455l20 -22v-264q0 -99 -11 -191q-1 -8 -3.5 -33t-4 -34t-5.5 -30.5t-9.5 -34t-14 -31.5t-21.5 -36.5t-29 -36.5q-12 -12 -20 -12l-77 2l-3 3q-2 14 -2 48q2 3 4 3q70 5 80 7q15 2 22 16q8 24 8 45v525q0 24 -28 24h-40q-5 0 -5 4v22q0 7 5 8l32 5q33 6 62 11t30 5z
M117 609q0 27 11 37q14 12 40 14q29 2 41 -12q13 -12 11 -39q-1 -19 -13 -34q-12 -16 -45 -16q-19 0 -35 19q-10 15 -10 31z" />
    <glyph glyph-name="k" unicode="k" horiz-adv-x="557" 
d="M485 49q15 -20 36 -20h26q10 0 10 -32q-38 2 -69 2q-6 0 -27.5 -1t-30.5 -1q-14 0 -21 8q-35 43 -35 44l-98 121q-34 37 -67 38v-56l4 -100q2 -19 15 -19h47q10 0 10 -36q-55 3 -122 3q-4 0 -118 -3q0 36 10 36h49q12 0 14 19q5 54 5 100v495q0 25 -28 25h-51q-4 0 -4 3
v23q0 6 4 7q5 1 68.5 10.5t66.5 9.5l10 -4l20 -19v-453q25 0 52 19q107 117 107 119q23 27 -9 27h-35q-10 0 -10 36q76 -2 101 -2q55 0 92 2q0 -36 -10 -36h-32q-20 0 -47 -27l-104 -117q-8 -8 -3 -18z" />
    <glyph glyph-name="l" unicode="l" horiz-adv-x="315" 
d="M184 721l20 -18v-548l4 -100q2 -19 15 -19h47q10 0 10 -36q-55 3 -122 3q-4 0 -118 -3q0 36 10 36h49q12 0 14 19q5 54 5 100v493q0 25 -28 25h-51q-4 0 -4 3v23q0 6 4 7q5 1 68.5 10t66.5 9z" />
    <glyph glyph-name="m" unicode="m" horiz-adv-x="913" 
d="M350 33h49q12 0 14 19q5 54 5 100v134q0 19 -1 30.5t-6 27.5t-14.5 25.5t-28.5 16.5t-45 7q-43 0 -82 -25.5t-41 -53.5v-162l5 -100q2 -19 14 -19h47q10 0 10 -36q-56 3 -122 3q-3 0 -117 -3q0 36 10 36h48q12 0 15 19q4 54 4 100v224q0 24 -28 24h-40q-5 0 -5 4v22
q0 7 5 8l32 6q33 5 62 10t30 5l10 -3l20 -22v-53q1 0 10 8.5t23 20t32.5 22.5t42.5 19t48 8q41 0 82 -23t57 -63q86 86 164 86q53 0 100.5 -35t47.5 -93v-175l5 -100q2 -19 14 -19l47 3q10 0 10 -36h-122q-3 0 -117 -3q0 36 10 36h48q12 0 15 19q4 54 4 100v134
q0 19 -1 30.5t-6 27.5t-14 25.5t-28 16.5t-45 7q-43 0 -82 -26.5t-41 -54.5v-160l4 -100q2 -19 15 -19h47q10 0 10 -36q-56 3 -122 3q-4 0 -118 -3q0 36 10 36z" />
    <glyph glyph-name="n" unicode="n" horiz-adv-x="610" 
d="M350 33h49q12 0 14 19q5 54 5 100v134q0 24 -2 38.5t-10.5 33.5t-29 28.5t-53.5 9.5q-43 0 -82 -27t-41 -55v-162l5 -100q2 -19 14 -19h47q10 0 10 -36q-56 3 -122 3q-3 0 -117 -3q0 36 10 36h48q12 0 15 19q4 54 4 100v224q0 26 -28 26h-40q-5 0 -5 4v22q0 7 5 8l32 6
q33 5 62 10t30 5l10 -3l20 -22v-55q1 0 10 9t23 20.5t32.5 23t42.5 19.5t48 8q62 0 105 -35t43 -95v-175q0 -87 4 -99q2 -20 15 -20h47q10 0 10 -36q-56 3 -122 3q-4 0 -118 -3q0 36 10 36z" />
    <glyph glyph-name="o" unicode="o" horiz-adv-x="542" 
d="M136 245q0 -90 39.5 -152t107.5 -62q62 0 92.5 51t30.5 120q0 90 -39.5 152t-107.5 62q-62 0 -92.5 -51t-30.5 -120zM46 213q0 103 66.5 175t171.5 72q107 0 159.5 -62t52.5 -164q0 -103 -66.5 -175t-171.5 -72q-107 0 -159.5 62t-52.5 164z" />
    <glyph glyph-name="p" unicode="p" horiz-adv-x="560" 
d="M306 396q-41 0 -79.5 -26t-40.5 -53v-174q2 -36 5 -42q31 -72 108 -72q62 0 95 55.5t33 127.5q0 184 -121 184zM32 -239h49q12 0 14 19q5 54 5 100v499q0 24 -28 24h-51q-4 0 -4 4v22q0 7 4 8q2 0 35.5 5.5t65.5 10.5t34 5l10 -3l20 -22v-54q8 9 22 22t53 35t73 22
q46 0 87 -22.5t62 -62.5q31 -59 31 -125q0 -106 -60 -185t-152 -79q-70 0 -116 42v-146l4 -100q2 -19 15 -19h47q10 0 10 -36q-49 4 -122 4q-42 0 -118 -4q0 36 10 36z" />
    <glyph glyph-name="q" unicode="q" horiz-adv-x="575" 
d="M375 139v173q-10 100 -110 100q-44 0 -75 -30t-43.5 -69.5t-12.5 -79.5q0 -37 4 -65.5t16 -58.5t38 -46.5t64 -16.5q35 0 75.5 31t43.5 62zM480 -239h48q10 0 10 -36q-76 4 -117 4q-74 0 -123 -4q0 36 11 36h47q12 0 14 19q5 56 5 100v189q-3 -3 -8.5 -9t-22.5 -20.5
t-33.5 -26t-40.5 -20.5t-45 -9q-79 0 -129 58.5t-50 151.5q0 105 67 184.5t171 79.5q39 0 76 -10q48 -12 62 -12q5 0 10 4t8 8l2 3l26 -8q-7 -37 -7 -99v-464l4 -100q2 -19 15 -19z" />
    <glyph glyph-name="r" unicode="r" horiz-adv-x="410" 
d="M37 -3q0 36 10 36h48q15 0 15 19q4 54 4 100v228q0 24 -28 24h-40q-5 0 -5 4v22q0 7 5 8l32 6q33 5 62 10t30 5l10 -3l20 -22v-65q4 16 47 53.5t81 37.5q58 0 70 -33l1 -12l-6 -80q0 -3 -4 -3h-36q-4 0 -4 4q-3 24 -6 39q-5 21 -40 21q-33 -1 -68 -35.5t-35 -63.5v-145
l5 -100q1 -19 33 -19h47q10 0 10 -36q-92 3 -141 3z" />
    <glyph glyph-name="s" unicode="s" horiz-adv-x="375" 
d="M40 324q0 65 46.5 100t119.5 35q7 0 14.5 -0.5t13 -1t9.5 -1t6 -0.5l2 -1l46 -7l25 -26q4 -4 2 -13l-15 -99q0 -3 -4 -3h-7h-8h-7.5h-4.5h-2q-4 0 -4 4q-3 43 -9 65t-10.5 26t-16.5 11q-28 11 -48 11q-32 0 -52.5 -19t-20.5 -41q0 -32 12.5 -50t60.5 -44q8 -4 33.5 -17.5
t35.5 -19.5t29 -19.5t27 -24.5t15 -28t7 -37q0 -69 -52.5 -103.5t-128.5 -34.5q-48 0 -109 21q-8 3 -8 14l-2 109q0 3 3 3l29 4q4 1 5 -3q9 -45 20 -65.5t31 -31.5q25 -13 57 -13q74 0 74 70q0 54 -98 98q-116 52 -116 132z" />
    <glyph glyph-name="t" unicode="t" horiz-adv-x="343" 
d="M298 65q19 -29 0 -42q-44 -31 -101 -31t-82 27t-25 90v268q-2 16 -14 16l-42 1q-4 0 -4 4v25q0 7 4 8l56 10v95q0 5 4 8l48 51q2 3 10 3q4 0 20 -7q4 -1 4 -7v-136q2 -7 7 -7l118 1q0 -19 -1 -27t-5.5 -14.5t-14.5 -6.5h-95q-7 0 -9 -10v-275q0 -64 48 -64q17 0 35.5 5
t28.5 10z" />
    <glyph glyph-name="u" unicode="u" horiz-adv-x="578" 
d="M402 129v159q0 32 -2 80q-2 21 -8 28.5t-21 7.5h-37q-5 0 -5 4v22q0 7 5 8l32 6q33 5 62 10t30 5l10 -3l20 -22v-359q0 -19 5 -27t23 -8h19q6 0 6 -4v-21q0 -7 -5 -8q-25 -4 -50.5 -9t-39 -8t-14.5 -3l-10 3l-20 21v52l-9 -9q-9 -9 -22.5 -20t-31 -22.5t-41 -19.5
t-47.5 -8q-53 0 -100.5 35t-47.5 93v176q0 8 -3 80q-2 21 -7.5 28.5t-20.5 7.5h-37q-5 0 -5 4v22q0 7 5 8l33 6q32 5 61 10t30 5l10 -3l20 -22v-281q0 -107 94 -107q37 0 76.5 27t42.5 56z" />
    <glyph glyph-name="v" unicode="v" horiz-adv-x="483" 
d="M345 414h-30q-10 0 -10 36q10 0 46 -1.5t55 -1.5q54 0 91 3q0 -36 -10 -36h-27q-14 0 -29 -9t-20 -23q-124 -298 -153 -384q-18 2 -26 2t-26 -2q-18 59 -82 225t-69 172q-10 19 -33 19h-36q-11 0 -11 36q117 -3 118 -3q85 0 122 3q0 -36 -10 -36h-34q-12 0 -19 -5t-4 -14
l108 -288l109 275q6 14 0.5 23t-20.5 9z" />
    <glyph glyph-name="w" unicode="w" horiz-adv-x="726" 
d="M588 414h-30q-10 0 -10 36q11 0 46.5 -1.5t53.5 -1.5q30 0 92 5q0 -36 -10 -36h-23q-38 0 -52 -31q-120 -301 -149 -387q-20 2 -26 2q-7 0 -25 -2q-16 52 -101 303q-102 -267 -114 -303q-18 2 -26 2t-26 -2q-21 69 -76 232t-60 168q-7 16 -35 16h-32q-10 0 -10 36
q114 -3 118 -3q85 0 122 3q0 -36 -10 -36h-36q-8 0 -16 -5t-6 -14q43 -173 87 -294l119 321q14 -2 32 -2t30 2q42 -200 86 -321l108 284q4 12 -2 20.5t-19 8.5z" />
    <glyph glyph-name="x" unicode="x" horiz-adv-x="522" 
d="M107 400q-8 14 -37 14h-29q-10 0 -10 36q114 -3 118 -3q67 0 104 3q0 -36 -10 -36h-27q-23 0 -14 -14l73 -118q78 105 78 106q19 27 -13 27h-31q-10 0 -10 36q76 -2 101 -2q54 0 91 2q0 -36 -10 -36h-28q-31 0 -50 -27l-105 -142l122 -194q5 -9 20 -14.5t26 -5.5h31
q10 0 10 -35q-55 3 -122 3q-21 0 -39.5 -0.5t-39.5 -1.5t-34 -1q0 35 10 35h25q14 0 18.5 6t-2.5 14l-77 123l-85 -115q-8 -8 -5 -17t21 -9h29q10 0 10 -36q-76 2 -104 2q-55 0 -92 -2q0 36 10 36h29q27 0 52 26q55 74 112 152z" />
    <glyph glyph-name="y" unicode="y" horiz-adv-x="492" 
d="M132 -193l76 187q-19 62 -84 229t-71 173q-10 18 -34 18h-34q-10 0 -10 36q114 -3 117 -3q86 0 123 3q0 -36 -11 -36h-36q-21 0 -21 -13q0 -3 1 -5q64 -165 108 -286l110 274q5 12 -1 21t-19 9h-32q-10 0 -10 36q10 0 46 -1.5t55 -1.5q55 0 92 3q0 -36 -10 -36h-29
q-34 0 -46 -30l-214 -535q-15 -37 -26 -56t-39 -51q-12 -12 -20 -12l-78 2l-3 3q-2 14 -2 47q0 3 4 3q72 5 76 6q16 4 22 16z" />
    <glyph glyph-name="z" unicode="z" horiz-adv-x="428" 
d="M137 447l56 1h112h56l18 -18q-59 -108 -226 -380q-3 -7 0 -8.5t11 -2.5h4q8 -1 45 -1h77q23 3 33 20t27 75q1 4 5 4q9 0 35 -7q3 -1 3 -5l-17 -115q-1 -5 -4 -8t-6 -4h-2l-50 1q-212 1 -266 1l-17 18q190 288 237 381q3 8 -1 8h-125q-32 -1 -42 -12.5t-27 -67.5
q-1 -4 -5 -3l-6 1q-6 1 -15 3t-14 3q-3 0 -3 3l17 103q1 5 4 8t5 3l3 1z" />
    <glyph glyph-name="braceleft" unicode="{" horiz-adv-x="261" 
d="M20 263q0 8 1 13q0 3 4 3q62 1 85.5 27t23.5 77q0 23 -3 71t-3 74q0 94 41 142t131 55q4 0 5 -1q4 -5 4 -24q0 -4 -4 -4q-69 -12 -93 -43t-24 -91q0 -21 4 -83.5t4 -87.5q0 -101 -110 -126q-2 -1 -2 -3t2 -3q110 -26 110 -126q0 -25 -4 -87.5t-4 -83.5q0 -60 24 -91
t93 -43q4 0 4 -4q0 -19 -4 -24q-1 -1 -5 -1q-90 7 -131 55t-41 142q0 18 3 72t3 72q0 51 -23.5 77.5t-85.5 27.5q-4 0 -4 3q-1 5 -1 15z" />
    <glyph glyph-name="bar" unicode="|" horiz-adv-x="430" 
d="M72 726h59v-751h-59v751z" />
    <glyph glyph-name="braceright" unicode="}" horiz-adv-x="261" 
d="M337 263q0 -10 -1 -15q0 -3 -4 -3q-62 -1 -85.5 -27.5t-23.5 -77.5q0 -23 3 -70.5t3 -73.5q0 -94 -41 -142t-131 -55q-4 0 -5 1q-4 5 -4 24q0 4 4 4q69 12 93 43t24 91q0 21 -4 83.5t-4 87.5q0 100 110 126q2 1 2 3t-2 3q-110 25 -110 126q0 25 4 87.5t4 83.5
q0 60 -24 91t-93 43q-4 0 -4 4q0 19 4 24q1 1 5 1q90 -7 131 -55t41 -142q0 -23 -3 -70.5t-3 -74.5q0 -51 23.5 -77t85.5 -27q4 0 4 -3q1 -5 1 -13z" />
    <glyph glyph-name="asciitilde" unicode="~" horiz-adv-x="578" 
d="M55 237q4 7 15 16.5t19 16t10 7.5q51 43 95 43q48 0 101 -27.5t80 -27.5q33 0 69 22t52 38q10 8 9 -8q0 -7 -2 -17q-5 -18 -35 -41q-72 -56 -121 -56q-20 0 -77 28.5t-93 28.5q-54 0 -116 -56q-8 -7 -12 3q0 20 6 30z" />
    <glyph glyph-name="exclamdown" unicode="&#xa1;" horiz-adv-x="287" 
d="M189 -6l-90 19q-12 3 -9 18l34 443q0 6 5 7l32 6q7 1 7 -5l37 -476q1 -8 -3.5 -10.5t-12.5 -1.5zM101 641q0 16 10 31q16 19 35 19q33 0 45 -16q12 -15 13 -34q2 -27 -11 -39q-12 -14 -41 -12q-27 2 -39 14q-12 10 -12 37z" />
    <glyph glyph-name="cent" unicode="&#xa2;" horiz-adv-x="454" 
d="M289 641l28 -17q3 -2 3 -8q-2 -10 -4.5 -30.5t-3.5 -27.5q66 -5 107 -35q1 0 1.5 -1t1.5 -4.5t0 -8.5l-12 -99q0 -3 -4 -3h-4t-4.5 -0.5t-5 -0.5h-5h-5h-5h-4.5h-3.5h-2.5h-1q-4 0 -4 4q-3 38 -7 53q-9 35 -48 44q-5 -50 -17.5 -181.5t-19.5 -189.5q72 0 117 31l23 17
q25 -23 16 -32l-10 -9q-59 -52 -152 -56q-5 -41 -13 -72q-3 -12 -12 -18q-5 -3 -15 -7q-14 -6 -11 7q11 62 15 91q-92 8 -142.5 77.5t-50.5 153.5q1 98 67.5 165t172.5 74l7 76q1 5 2.5 6.5t4.5 0.5zM271 511q-73 0 -109.5 -51.5t-37.5 -138.5q0 -57 30 -109.5t81 -69.5
q12 97 36 369z" />
    <glyph glyph-name="sterling" unicode="&#xa3;" horiz-adv-x="576" 
d="M94 100q18 20 33 71.5t16 86.5v35q0 23 -15 23l-62 1q-4 0 -4 3v26q0 7 4 8l80 10q1 10 1 28q3 97 21 153t80 98q80 54 120 55q47 0 65 -37l1 -11l-14 -93q0 -3 -4 -3h-7.5h-9h-8h-5.5h-2q-4 0 -4 4l-3 34q-3 24 -17 32.5t-43 8.5q-48 0 -69 -51q-22 -51 -22 -217
q1 -1 4 -1h155l-17 -48h-136q-4 0 -6 -3q-4 -126 -77 -210q-13 -16 -13 -21q0 -10 9 -10q21 -2 211 -2q46 0 67.5 14.5t36.5 47.5q7 17 15 52q2 5 7 3q10 -2 25 -7q5 -2 5 -7q-21 -124 -29 -159q-3 -6 -14 -9q-23 -5 -116 -5q-199 0 -249 8q-5 1 -13 1q-14 0 -31.5 -5.5
t-19.5 -5.5l-1 2q-1 2 -2 5.5t-1 7.5q0 5 1 9q-1 0 6 10.5t21 30t30 37.5z" />
    <glyph glyph-name="yen" unicode="&#xa5;" horiz-adv-x="638" 
d="M456 191l-97 -1q0 -55 3 -100q3 -53 36 -53h47q10 0 10 -40q-55 3 -150 3q-37 0 -139 -3q0 40 6 40h51q16 0 29 14.5t13 38.5v100h-108q-3 0 -3 9q0 4 3 11t5 12.5t3 5.5h100v76h-109q1 0 13 36q0 2 4 1q9 -1 78 -1h3q-79 146 -170 264q-18 27 -41 27h-48q-10 0 -10 40
q114 -3 136 -3q73 0 129 3q0 -40 -10 -40h-39q-11 0 -11 -9q0 -6 5 -18q57 -99 141 -231q15 24 52.5 81t61 95.5t29.5 54.5q7 14 -1 20.5t-23 6.5h-48q-10 0 -10 40q114 -3 123 -3q68 0 124 3q0 -40 -10 -40h-39q-26 0 -45 -27q-37 -42 -90 -118.5t-93 -145.5h107
q4 -4 2 -10q-1 -4 -7.5 -15t-8.5 -11h-101q-1 -5 -1 -76h113l-3 -9q-4 -9 -7.5 -18.5t-4.5 -9.5z" />
    <glyph glyph-name="dieresis" unicode="&#xa8;" horiz-adv-x="355" 
d="M25 613q0 21 12 31q12 11 39 13q22 5 36 -11q14 -14 11 -33q-1 -18 -14 -35q-13 -16 -39 -16q-19 0 -35 19q-10 15 -10 32zM227 613q0 21 11 31q12 11 39 13q22 5 36 -11q16 -16 11 -33q-1 -20 -13 -35q-13 -16 -39 -16q-19 0 -35 19q-10 13 -10 32z" />
    <glyph glyph-name="copyright" unicode="&#xa9;" horiz-adv-x="741" 
d="M371 708q154 0 256 -104t102 -255q0 -152 -104.5 -256.5t-253.5 -104.5q-153 0 -256 103t-103 258q0 149 105 254t254 105zM371 673q-131 0 -223 -94.5t-92 -229.5q0 -133 92 -227.5t223 -94.5q139 0 226.5 92.5t87.5 229.5q0 135 -92 229.5t-222 94.5zM433 133
q-30 -3 -59 -3q-15 0 -33.5 3t-44.5 10t-49.5 22.5t-44 37.5t-33 57.5t-12.5 79.5q0 57 19 99.5t44.5 64.5t59 35.5t55.5 16.5t40 3q52 0 76 -3l59 -6l13 -12q3 -1 3 -7q0 -2 -2.5 -33.5t-3.5 -33.5q0 -3 -4 -3h-22q-3 0 -3 3q0 7 -5 20q-7 19 -17 26.5t-29 13.5
q-30 7 -72 7q-62 0 -98 -53t-36 -123q0 -20 2 -39.5t11.5 -50t26 -52.5t50 -38.5t78.5 -16.5q19 0 32 4q42 15 56 47q6 16 9 30q0 2 3 2q3 -1 10.5 -3t10.5 -3q3 -2 3 -5q-10 -58 -14 -79q-4 -4 -8 -5z" />
    <glyph glyph-name="ordfeminine" unicode="&#xaa;" horiz-adv-x="278" 
d="M171 490v64q-49 -10 -83 -25q-26 -11 -26 -35q0 -15 9.5 -25t22.5 -10q36 0 77 31zM34 656q0 5 3 7q1 1 9 7t16.5 11.5t19 12t22.5 10.5t22 4q33 0 65 -17.5t32 -55.5v-101l1 -59q2 -23 23 -23h11q4 0 4 -2v-13q0 -4 -3 -5l-70 -10l-6 2l-12 13v32q-48 -46 -88 -46
q-30 0 -49.5 19.5t-19.5 51.5q0 37 48 53q50 18 109 27v44q0 22 -16 39t-53 17q-29 0 -32 -17q-1 -7 -4 -42q0 -1 -2 -3q-19 0 -27 1q-2 0 -2 2z" />
    <glyph glyph-name="guillemotleft" unicode="&#xab;" horiz-adv-x="625" 
d="M328 356q-69 -59 -180 -130q-5 -3 0 -6q92 -59 198 -137q6 -5 -17 -42q-3 -5 -5 -2q-18 21 -123 84.5t-154 82.5q-5 3 -3.5 14.5t9.5 14.5q53 22 143.5 78.5t135.5 90.5q6 4 6 -4q0 -28 -6 -40q-2 -4 -4 -4zM568 356q-69 -59 -180 -130q-5 -3 0 -6q92 -59 198 -137
q6 -5 -17 -42q-3 -5 -5 -2q-18 21 -123 84.5t-154 82.5q-5 3 -3.5 14.5t9.5 14.5q53 22 143.5 78.5t135.5 90.5q6 4 6 -4q0 -28 -6 -40q-2 -4 -4 -4z" />
    <glyph glyph-name="logicalnot" unicode="&#xac;" 
d="M421 289l-364 -1q-1 0 -2.5 3.5t-0.5 5.5q4 32 15 55q0 2 9 1q18 -1 405 -1h1q6 0 10.5 -4.5t4.5 -9.5v-49l-1 -210q-4 -4 -10 -2q-8 2 -30 9t-23 11l-1 169v9q0 14 -13 14z" />
    <glyph glyph-name="registered" unicode="&#xae;" horiz-adv-x="326" 
d="M159 706q58 0 96.5 -38.5t38.5 -97.5t-39 -97.5t-96 -38.5q-58 0 -96 38.5t-38 97.5q0 56 39.5 96t94.5 40zM159 684q-45 0 -76.5 -33t-31.5 -81q0 -47 32 -80t77 -33q46 0 77 31.5t31 81.5q0 47 -31.5 80.5t-77.5 33.5zM144 512h10q1 0 1 -9q-7 1 -30 1q-20 0 -28 -1
q0 9 2 9h10q7 0 7 5q1 10 1 19v94q0 6 -8 6h-10q-2 0 -2 8q8 -1 28 -1h36q19 0 29.5 -10.5t10.5 -23.5q0 -21 -20 -34l-8 -5q17 -23 40 -55q5 -3 10 -3h6q4 0 4 -8h-32q-3 0 -3 1l-8 9q-21 33 -29 46q-6 4 -8 4h-16q-1 -1 -1 -2v-26v-8.5v-7.5l1 -3q0 -5 7 -5zM156 573
q9 0 17 7t8 24q0 32 -33 32q-10 0 -12 -5v-57l1 -1h19z" />
    <glyph glyph-name="degree" unicode="&#xb0;" horiz-adv-x="393" 
d="M116 562q0 -41 26 -65t58 -24t58 24t26 65t-26 65t-58 24t-58 -24t-26 -65zM200 705q60 0 101.5 -41.5t41.5 -101.5t-41.5 -101.5t-101.5 -41.5t-101.5 41.5t-41.5 101.5t41.5 101.5t101.5 41.5z" />
    <glyph glyph-name="plusminus" unicode="&#xb1;" 
d="M233 108l1 217l-195 -1q-1 0 -2.5 3.5t-0.5 5.5q4 32 15 55q0 2 9 1q18 -1 112 -1h61l1 193q1 4 23 11t30 9q6 2 10 -2v-103q0 -89 1 -107q18 -1 105 -1h102q4 -4 2 -10q-2 -8 -9 -30t-11 -23l-190 -1v-83q0 -29 0.5 -68t0.5 -44q0 -10 -3 -10q-21 -10 -53 -14
q-2 -1 -5.5 0.5t-3.5 2.5zM480 8l-441 -1q-1 0 -2.5 3.5t-0.5 5.5q4 32 15 55q0 2 9 1q18 -1 107 -1h331q4 -4 2 -10q-2 -8 -9 -30t-11 -23z" />
    <glyph glyph-name="acute" unicode="&#xb4;" horiz-adv-x="200" 
d="M89 690l69 -8q2 0 3 -1.5t1 -4.5t-3 -6q-98 -131 -108 -140q-4 -5 -10 -3q-4 3 -10 8.5t-7 6.5q-3 3 -1 9q1 2 14 34t25.5 64t12.5 33q3 7 14 8z" />
    <glyph glyph-name="paragraph" unicode="&#xb6;" horiz-adv-x="602" 
d="M373 692h52q26 0 140 3q0 -40 -10 -40h-48q-15 0 -27.5 -7.5t-12.5 -19.5q0 -193 -1.5 -323t-3.5 -187t-2 -71q0 -152 -98 -277q-1 -1 -3.5 -4t-3.5 -3.5t-3.5 -2.5t-3.5 -2.5l-4 -2t-5 -0.5t-6 0h-106l-4 4q-2 20 -2 65q1 4 5 4q43 3 106 12q27 4 33 21q6 15 8 289
q-31 -15 -81 -15q-106 0 -190 79t-84 188q0 235 218 275q81 15 137 15zM373 198l1 46v379h-9q-45 0 -72.5 -52.5t-27.5 -119.5q0 -227 108 -253z" />
    <glyph glyph-name="periodcentered" unicode="&#xb7;" horiz-adv-x="201" 
d="M48 395q-2 28 11 45t40 17q32 0 44.5 -11t12.5 -41q0 -29 -15 -42t-38 -13q-21 0 -37.5 13t-17.5 32z" />
    <glyph glyph-name="cedilla" unicode="&#xb8;" horiz-adv-x="833" 
d="M400 -19h40l-29 -44q30 -6 55 -26q24 -20 24 -56q0 -32 -23.5 -57t-50 -35.5t-46.5 -10.5q-35 0 -58 28q-3 3 -3 8q0 13 2 19q1 4 4 3q37 -19 70 -19q20 0 37 15t17 32q0 18 -4 28.5t-24.5 20.5t-61.5 13q-8 2 -1 11q31 42 52 70z" />
    <glyph glyph-name="ordmasculine" unicode="&#xba;" horiz-adv-x="278" 
d="M59 576q0 -54 23.5 -91t64.5 -37q37 0 55.5 30.5t18.5 71.5q0 54 -24 91.5t-65 37.5q-37 0 -55 -30.5t-18 -72.5zM5 557q0 62 39.5 105t102.5 43q64 0 96 -37.5t32 -98.5t-40 -104.5t-103 -43.5q-64 0 -95.5 37.5t-31.5 98.5z" />
    <glyph glyph-name="guillemotright" unicode="&#xbb;" horiz-adv-x="625" 
d="M303 356q-2 0 -4 4q-6 12 -6 40q0 8 6 4q45 -34 135.5 -90.5t143.5 -78.5q8 -3 9.5 -14.5t-3.5 -14.5q-49 -19 -154 -82.5t-123 -84.5q-2 -3 -5 2q-23 37 -17 42q106 78 198 137q5 3 0 6q-111 71 -180 130zM63 356q-2 0 -4 4q-6 12 -6 40q0 8 6 4q45 -34 135.5 -90.5
t143.5 -78.5q8 -3 9.5 -14.5t-3.5 -14.5q-49 -19 -154 -82.5t-123 -84.5q-2 -3 -5 2q-23 37 -17 42q106 78 198 137q5 3 0 6q-111 71 -180 130z" />
    <glyph glyph-name="questiondown" unicode="&#xbf;" horiz-adv-x="378" 
d="M329 151q3 0 3 -3q8 -42 8 -73q0 -44 -22.5 -63t-82.5 -19q-75 0 -137.5 48.5t-62.5 122.5q0 58 26 88q33 38 125 114q44 36 -6 83q-10 8 1 15q18 9 27 15q8 3 22 -7q56 -43 54 -90q0 -13 -9 -20q-71 -50 -131 -103q-16 -15 -26.5 -37.5t-10.5 -39.5q1 -51 47 -83.5
t102 -35.5q27 1 29 18q2 39 1 64q0 3 3 4l7 1q7 0 17 0.5t16 0.5zM247 642q0 -27 -12 -37q-12 -12 -39 -14q-29 -2 -41 12q-13 12 -11 39q1 19 13 34q12 16 45 16q19 0 35 -19q10 -15 10 -31z" />
    <glyph glyph-name="Agrave" unicode="&#xc0;" horiz-adv-x="721" 
d="M369 577l-92 -251q1 -1 4 -1h170q3 0 5 2zM731 37q10 0 10 -40q-55 3 -140 3q-26 0 -140 -3q0 40 10 40h40q9 0 18 1.5t16 8t3 17.5q-34 98 -73 212q-2 1 -5 1h-208q-3 0 -4 -1l-77 -211q-5 -12 5.5 -19.5t32.5 -7.5h47q11 0 11 -40q-55 3 -116 3q-26 0 -140 -3
q0 40 10 40h48q11 0 25 7.5t19 19.5q208 542 238 628l8 -1h6.5h8h7.5q18 0 27 1q17 -59 121 -340.5t110 -288.5q14 -27 41 -27h41zM291 877q8 4 73 12q11 1 13 -4q0 -1 11.5 -33.5t23 -65.5t12.5 -35q2 -6 -1 -9q-1 -1 -7 -6.5t-10 -8.5q-6 -2 -10 3q-15 14 -106 135
q-8 9 1 12z" />
    <glyph glyph-name="Aacute" unicode="&#xc1;" horiz-adv-x="721" 
d="M369 577l-92 -251q1 -1 4 -1h170q3 0 5 2zM731 37q10 0 10 -40q-55 3 -140 3q-26 0 -140 -3q0 40 10 40h40q9 0 18 1.5t16 8t3 17.5q-34 98 -73 212q-2 1 -5 1h-208q-3 0 -4 -1l-77 -211q-5 -12 5.5 -19.5t32.5 -7.5h47q11 0 11 -40q-55 3 -116 3q-26 0 -140 -3
q0 40 10 40h48q11 0 25 7.5t19 19.5q208 542 238 628l8 -1h6.5h8h7.5q18 0 27 1q17 -59 121 -340.5t110 -288.5q14 -27 41 -27h41zM415 888l69 -8q2 0 3 -1.5t1 -4.5t-3 -6q-98 -131 -108 -140q-4 -5 -10 -3q-4 3 -10 8.5t-7 6.5q-3 3 -1 9q1 2 14 34t25.5 64t12.5 33
q3 7 14 8z" />
    <glyph glyph-name="Acircumflex" unicode="&#xc2;" horiz-adv-x="721" 
d="M369 577l-92 -251q1 -1 4 -1h170q3 0 5 2zM731 37q10 0 10 -40q-55 3 -140 3q-26 0 -140 -3q0 40 10 40h40q9 0 18 1.5t16 8t3 17.5q-34 98 -73 212q-2 1 -5 1h-208q-3 0 -4 -1l-77 -211q-5 -12 5.5 -19.5t32.5 -7.5h47q11 0 11 -40q-55 3 -116 3q-26 0 -140 -3
q0 40 10 40h48q11 0 25 7.5t19 19.5q208 542 238 628l8 -1h6.5h8h7.5q18 0 27 1q17 -59 121 -340.5t110 -288.5q14 -27 41 -27h41zM405 906q16 -37 44 -89.5t36 -63.5q5 -10 0 -12q-5 -5 -33 -12q-6 -3 -14 3q-15 16 -58 93q-4 9 -9 1l-51 -85q-9 -15 -35 -15q-17 0 -10 10
q9 9 44.5 76t38.5 76q6 11 10 14q1 0 7.5 2t12.5 4t10 2z" />
    <glyph glyph-name="Atilde" unicode="&#xc3;" horiz-adv-x="721" 
d="M369 577l-92 -251q1 -1 4 -1h170q3 0 5 2zM731 37q10 0 10 -40q-55 3 -140 3q-26 0 -140 -3q0 40 10 40h40q9 0 18 1.5t16 8t3 17.5q-34 98 -73 212q-2 1 -5 1h-208q-3 0 -4 -1l-77 -211q-5 -12 5.5 -19.5t32.5 -7.5h47q11 0 11 -40q-55 3 -116 3q-26 0 -140 -3
q0 40 10 40h48q11 0 25 7.5t19 19.5q208 542 238 628l8 -1h6.5h8h7.5q18 0 27 1q17 -59 121 -340.5t110 -288.5q14 -27 41 -27h41zM240 762q12 20 44 39.5t53 19.5q18 0 52 -13.5t54 -13.5q38 0 75 37q8 7 8 -7q0 -6 -2 -15q-5 -16 -31 -37q-44 -32 -78 -32
q-18 0 -52.5 12.5t-53.5 12.5q-25 0 -64 -33q-4 -4 -6.5 -2.5t-2.5 3.5l-1 2q0 19 5 27z" />
    <glyph glyph-name="Adieresis" unicode="&#xc4;" horiz-adv-x="721" 
d="M369 577l-92 -251q1 -1 4 -1h170q3 0 5 2zM731 37q10 0 10 -40q-55 3 -140 3q-26 0 -140 -3q0 40 10 40h40q9 0 18 1.5t16 8t3 17.5q-34 98 -73 212q-2 1 -5 1h-208q-3 0 -4 -1l-77 -211q-5 -12 5.5 -19.5t32.5 -7.5h47q11 0 11 -40q-55 3 -116 3q-26 0 -140 -3
q0 40 10 40h48q11 0 25 7.5t19 19.5q208 542 238 628l8 -1h6.5h8h7.5q18 0 27 1q17 -59 121 -340.5t110 -288.5q14 -27 41 -27h41zM230 776q0 21 12 31q12 11 39 13q22 5 36 -11q14 -14 11 -33q-1 -18 -14 -35q-13 -16 -39 -16q-19 0 -35 19q-10 15 -10 32zM432 776
q0 21 11 31q12 11 39 13q22 5 36 -11q16 -16 11 -33q-1 -20 -13 -35q-13 -16 -39 -16q-19 0 -35 19q-10 13 -10 32z" />
    <glyph glyph-name="Aring" unicode="&#xc5;" horiz-adv-x="721" 
d="M369 577l-92 -251q1 -1 4 -1h170q3 0 5 2zM731 37q10 0 10 -40q-55 3 -140 3q-26 0 -140 -3q0 40 10 40h40q9 0 18 1.5t16 8t3 17.5q-34 98 -73 212q-2 1 -5 1h-208q-3 0 -4 -1l-77 -211q-5 -12 5.5 -19.5t32.5 -7.5h47q11 0 11 -40q-55 3 -116 3q-26 0 -140 -3
q0 40 10 40h48q11 0 25 7.5t19 19.5q208 542 238 628l8 -1h6.5h8h7.5q18 0 27 1q17 -59 121 -340.5t110 -288.5q14 -27 41 -27h41zM393 875q36 0 57 -21t21 -52q0 -35 -23 -56t-59 -21q-27 0 -53 18t-26 55q0 35 21 56t62 21zM389 838q-47 0 -47 -39q0 -17 15 -27t36 -10
q19 0 33 10.5t14 25.5q0 40 -51 40z" />
    <glyph glyph-name="AE" unicode="&#xc6;" horiz-adv-x="967" 
d="M221 38h41q11 0 11 -40q-55 3 -110 3q-26 0 -140 -3q0 40 10 40h48q29 0 44 27q252 443 322 590h-62q-10 0 -10 40q114 -3 170 -3h336l18 -19q3 -2 3 -10l-5 -105q0 -4 -5 -4l-40 -2q-4 0 -4 4q-1 46 -13.5 67t-53.5 21h-157q-26 0 -28 -27v-237q2 -3 7 -3h156
q62 0 62 40l4 31q1 8 13.5 11t25.5 -5q-8 -51 -8 -99q0 -35 2 -109q-14 -7 -25.5 -3t-11.5 15v26q0 22 -19 33.5t-43 11.5h-156q-5 0 -7 -4v-250q6 -28 32 -28h177q19 0 30 2.5t26 16.5t29 42q7 13 15 52q2 5 7 3q5 -1 35 -11q5 -2 5 -7q-16 -98 -24 -133q-3 -8 -14 -9
q-33 -3 -87 -3h-310q-16 0 -130 -3q0 42 10 42h48q26 0 40.5 8.5t14.5 19.5q2 26 2 58q0 5 -0.5 16.5t-0.5 17.5v161v2.5t-2.5 4t-7.5 2.5h-163q-4 0 -8 -4l-137 -260q-7 -14 3.5 -20.5t34.5 -6.5zM495 377q3 0 4.5 3.5t1.5 7.5v3v237q0 25 -7 25l-3 -3l-140 -266
q-2 -7 6 -7h138z" />
    <glyph glyph-name="Ccedilla" unicode="&#xc7;" horiz-adv-x="752" 
d="M669 9q-134 -30 -219 -30q-32 0 -71 6.5t-94 30t-98 60t-74 105t-31 157.5q0 69 17 126.5t43 95t62.5 66.5t70.5 44.5t71.5 25t61.5 12t44 2.5q72 0 229 -18l21 -20q4 -2 4 -10q0 -3 -4 -57t-5 -59q-1 -4 -6 -4h-38q-4 0 -5 4q1 12 -8 34q-8 22 -20.5 36t-24 19.5
t-33.5 12.5q-52 18 -122 18q-114 0 -179.5 -86t-65.5 -210q0 -19 1.5 -38.5t8 -55.5t18 -66.5t34 -65.5t53.5 -59.5t79 -40.5t108 -16q46 0 88 22t60 64q7 17 15 52q2 5 7 3q5 -1 35 -11q5 -2 5 -7q-16 -98 -24 -133q-3 -6 -14 -9zM404 -5h40l-29 -44q30 -6 55 -26
q24 -20 24 -56q0 -32 -23.5 -57t-50 -35.5t-46.5 -10.5q-35 0 -58 28q-3 3 -3 8q0 13 2 19q1 4 4 3q37 -19 70 -19q20 0 37 15t17 32q0 18 -4 28.5t-24.5 20.5t-61.5 13q-8 2 -1 11q31 42 52 70z" />
    <glyph glyph-name="Egrave" unicode="&#xc8;" horiz-adv-x="611" 
d="M456 0h-310q-16 0 -130 -3q0 42 10 42h48q26 0 40.5 8.5t14.5 19.5q2 26 2 58q0 5 -0.5 16.5t-0.5 17.5v469q0 11 -13.5 19t-25.5 8h-47q-10 0 -10 40q114 -3 140 -3h336l18 -19q3 -2 3 -10l-5 -105q0 -4 -5 -4l-40 -2q-4 0 -4 4q-1 46 -13.5 67t-53.5 21h-157
q-26 0 -28 -27v-237q1 -3 7 -3h156q62 0 62 40l4 31q1 8 13.5 11t25.5 -5q-8 -51 -8 -99q0 -35 2 -109q-13 -7 -25 -3t-12 15v26q0 22 -19 33.5t-43 11.5h-156q-5 0 -7 -4v-250q6 -28 32 -28h181q26 0 43.5 11t37.5 50q7 13 15 52q2 5 7 3q5 -1 35 -11q5 -2 5 -7
q-16 -98 -24 -133q-3 -8 -14 -9q-33 -3 -87 -3zM216 877q8 4 73 12q11 1 13 -4q0 -1 11.5 -33.5t23 -65.5t12.5 -35q2 -6 -1 -9q-1 -1 -7 -6.5t-10 -8.5q-6 -2 -10 3q-15 14 -106 135q-8 9 1 12z" />
    <glyph glyph-name="Eacute" unicode="&#xc9;" horiz-adv-x="611" 
d="M456 0h-310q-16 0 -130 -3q0 42 10 42h48q26 0 40.5 8.5t14.5 19.5q2 26 2 58q0 5 -0.5 16.5t-0.5 17.5v469q0 11 -13.5 19t-25.5 8h-47q-10 0 -10 40q114 -3 140 -3h336l18 -19q3 -2 3 -10l-5 -105q0 -4 -5 -4l-40 -2q-4 0 -4 4q-1 46 -13.5 67t-53.5 21h-157
q-26 0 -28 -27v-237q1 -3 7 -3h156q62 0 62 40l4 31q1 8 13.5 11t25.5 -5q-8 -51 -8 -99q0 -35 2 -109q-13 -7 -25 -3t-12 15v26q0 22 -19 33.5t-43 11.5h-156q-5 0 -7 -4v-250q6 -28 32 -28h181q26 0 43.5 11t37.5 50q7 13 15 52q2 5 7 3q5 -1 35 -11q5 -2 5 -7
q-16 -98 -24 -133q-3 -8 -14 -9q-33 -3 -87 -3zM315 890l69 -8q2 0 3 -1.5t1 -4.5t-3 -6q-98 -131 -108 -140q-4 -5 -10 -3q-4 3 -10 8.5t-7 6.5q-3 3 -1 9q1 2 14 34t25.5 64t12.5 33q3 7 14 8z" />
    <glyph glyph-name="Ecircumflex" unicode="&#xca;" horiz-adv-x="611" 
d="M456 0h-310q-16 0 -130 -3q0 42 10 42h48q26 0 40.5 8.5t14.5 19.5q2 26 2 58q0 5 -0.5 16.5t-0.5 17.5v469q0 11 -13.5 19t-25.5 8h-47q-10 0 -10 40q114 -3 140 -3h336l18 -19q3 -2 3 -10l-5 -105q0 -4 -5 -4l-40 -2q-4 0 -4 4q-1 46 -13.5 67t-53.5 21h-157
q-26 0 -28 -27v-237q1 -3 7 -3h156q62 0 62 40l4 31q1 8 13.5 11t25.5 -5q-8 -51 -8 -99q0 -35 2 -109q-13 -7 -25 -3t-12 15v26q0 22 -19 33.5t-43 11.5h-156q-5 0 -7 -4v-250q6 -28 32 -28h181q26 0 43.5 11t37.5 50q7 13 15 52q2 5 7 3q5 -1 35 -11q5 -2 5 -7
q-16 -98 -24 -133q-3 -8 -14 -9q-33 -3 -87 -3zM327 907q16 -37 44 -89.5t36 -63.5q5 -10 0 -12q-5 -5 -33 -12q-6 -3 -14 3q-15 16 -58 93q-4 9 -9 1q-3 -5 -13 -22.5t-23 -38t-15 -24.5q-9 -15 -35 -15q-17 0 -10 10q9 9 44.5 76t38.5 76q6 11 10 14q1 0 7.5 2t12.5 4
t10 2z" />
    <glyph glyph-name="Edieresis" unicode="&#xcb;" horiz-adv-x="611" 
d="M456 0h-310q-16 0 -130 -3q0 42 10 42h48q26 0 40.5 8.5t14.5 19.5q2 26 2 58q0 5 -0.5 16.5t-0.5 17.5v469q0 11 -13.5 19t-25.5 8h-47q-10 0 -10 40q114 -3 140 -3h336l18 -19q3 -2 3 -10l-5 -105q0 -4 -5 -4l-40 -2q-4 0 -4 4q-1 46 -13.5 67t-53.5 21h-157
q-26 0 -28 -27v-237q1 -3 7 -3h156q62 0 62 40l4 31q1 8 13.5 11t25.5 -5q-8 -51 -8 -99q0 -35 2 -109q-13 -7 -25 -3t-12 15v26q0 22 -19 33.5t-43 11.5h-156q-5 0 -7 -4v-250q6 -28 32 -28h181q26 0 43.5 11t37.5 50q7 13 15 52q2 5 7 3q5 -1 35 -11q5 -2 5 -7
q-16 -98 -24 -133q-3 -8 -14 -9q-33 -3 -87 -3zM152 777q0 21 12 31q12 11 39 13q22 5 36 -11q14 -14 11 -33q-1 -18 -14 -35q-13 -16 -39 -16q-19 0 -35 19q-10 15 -10 32zM354 777q0 21 11 31q12 11 39 13q22 5 36 -11q16 -16 11 -33q-1 -20 -13 -35q-13 -16 -39 -16
q-19 0 -35 19q-10 13 -10 32z" />
    <glyph glyph-name="Igrave" unicode="&#xcc;" horiz-adv-x="361" 
d="M315 655h-47q-12 0 -26 -8t-15 -19v-469l3 -95q0 -10 13 -18.5t25 -8.5h47q10 0 10 -40q-55 3 -149 3q-26 0 -140 -3q0 40 10 40h48q12 0 24.5 8.5t12.5 18.5l2 95v469q0 11 -13.5 19t-25.5 8h-48q-10 0 -10 40q114 -3 140 -3q94 0 149 3q0 -40 -10 -40zM77 878
q8 4 73 12q11 1 13 -4q0 -1 11.5 -33.5t23 -65.5t12.5 -35q2 -6 -1 -9q-1 -1 -7 -6.5t-10 -8.5q-6 -2 -10 3q-15 14 -106 135q-8 9 1 12z" />
    <glyph glyph-name="Iacute" unicode="&#xcd;" horiz-adv-x="361" 
d="M315 655h-47q-12 0 -26 -8t-15 -19v-469l3 -95q0 -10 13 -18.5t25 -8.5h47q10 0 10 -40q-55 3 -149 3q-26 0 -140 -3q0 40 10 40h48q12 0 24.5 8.5t12.5 18.5l2 95v469q0 11 -13.5 19t-25.5 8h-48q-10 0 -10 40q114 -3 140 -3q94 0 149 3q0 -40 -10 -40zM218 890l69 -8
q2 0 3 -1.5t1 -4.5t-3 -6q-98 -131 -108 -140q-4 -5 -10 -3q-4 3 -10 8.5t-7 6.5q-3 3 -1 9q1 2 14 34t25.5 64t12.5 33q3 7 14 8z" />
    <glyph glyph-name="Icircumflex" unicode="&#xce;" horiz-adv-x="361" 
d="M315 655h-47q-12 0 -26 -8t-15 -19v-469l3 -95q0 -10 13 -18.5t25 -8.5h47q10 0 10 -40q-55 3 -149 3q-26 0 -140 -3q0 40 10 40h48q12 0 24.5 8.5t12.5 18.5l2 95v469q0 11 -13.5 19t-25.5 8h-48q-10 0 -10 40q114 -3 140 -3q94 0 149 3q0 -40 -10 -40zM205 907
q16 -37 44 -89.5t36 -63.5q5 -10 0 -12q-5 -5 -33 -12q-6 -3 -14 3q-15 16 -58 93q-4 9 -9 1q-3 -5 -13 -22.5t-23 -38t-15 -24.5q-9 -15 -35 -15q-17 0 -10 10q9 9 44.5 76t38.5 76q5 11 10 14q1 0 7.5 2t12.5 4t10 2z" />
    <glyph glyph-name="Idieresis" unicode="&#xcf;" horiz-adv-x="372" 
d="M43 693h292h-292zM325 655h-47q-12 0 -26 -8t-15 -19v-469l3 -95q0 -10 13 -18.5t25 -8.5h47q10 0 10 -40q-55 3 -149 3q-26 0 -140 -3q0 40 10 40h48q12 0 24.5 8.5t12.5 18.5l2 95v469q0 11 -13.5 19t-25.5 8h-48q-10 0 -10 40q114 -3 140 -3q94 0 149 3q0 -40 -10 -40
zM36 777q0 21 12 31q12 11 39 13q22 5 36 -11q14 -14 11 -33q-1 -18 -14 -35q-13 -16 -39 -16q-19 0 -35 19q-10 15 -10 32zM238 777q0 21 11 31q12 11 39 13q22 5 36 -11q16 -16 11 -33q-1 -20 -13 -35q-13 -16 -39 -16q-19 0 -35 19q-10 13 -10 32z" />
    <glyph glyph-name="Ntilde" unicode="&#xd1;" horiz-adv-x="855" 
d="M268 37h47q10 0 10 -40q-55 3 -149 3q-26 0 -140 -3q0 40 10 40h48q18 0 31.5 11.5t16.5 32.5q7 42 7 376v169q0 16 -18.5 22.5t-36.5 6.5h-48q-10 0 -10 40q114 -3 140 -3h45l449 -558v266q0 162 -10 228q-7 27 -42 27h-63q-10 0 -10 40q56 -3 149 -3q11 0 125 3
q0 -40 -10 -40h-33q-15 0 -29 -6.5t-17 -20.5q-10 -72 -10 -228v-402q-26 2 -36 2l-31 -2q-134 181 -449 567q0 -402 5 -484q1 -22 20.5 -33t38.5 -11zM286 763q12 20 44 39.5t53 19.5q18 0 52 -13.5t54 -13.5q38 0 75 37q8 7 8 -7q0 -6 -2 -15q-5 -16 -31 -37
q-44 -32 -78 -32q-18 0 -52.5 12.5t-53.5 12.5q-25 0 -64 -33q-4 -4 -6.5 -2.5t-2.5 3.5l-1 2q0 19 5 27z" />
    <glyph glyph-name="Ograve" unicode="&#xd2;" horiz-adv-x="802" 
d="M418 708q138 0 237.5 -104.5t99.5 -249.5q0 -170 -97.5 -271.5t-250.5 -101.5q-92 0 -164 32.5t-113 87t-62 118t-21 132.5q0 154 101 255.5t270 101.5zM380 651q-103 0 -161 -75.5t-58 -189.5q0 -177 79.5 -264t200.5 -87q36 0 69.5 16t64 49.5t49 93.5t18.5 139
q0 140 -74.5 228.5t-187.5 89.5zM302 876q8 4 73 12q11 1 13 -4q0 -1 11.5 -33.5t23 -65.5t12.5 -35q2 -6 -1 -9q-1 -1 -7 -6.5t-10 -8.5q-6 -2 -10 3q-15 14 -106 135q-8 9 1 12z" />
    <glyph glyph-name="Oacute" unicode="&#xd3;" horiz-adv-x="802" 
d="M418 708q138 0 237.5 -104.5t99.5 -249.5q0 -170 -97.5 -271.5t-250.5 -101.5q-92 0 -164 32.5t-113 87t-62 118t-21 132.5q0 154 101 255.5t270 101.5zM380 651q-103 0 -161 -75.5t-58 -189.5q0 -177 79.5 -264t200.5 -87q36 0 69.5 16t64 49.5t49 93.5t18.5 139
q0 140 -74.5 228.5t-187.5 89.5zM429 890l69 -8q2 0 3 -1.5t1 -4.5t-3 -6q-98 -131 -108 -140q-4 -5 -10 -3q-4 3 -10 8.5t-7 6.5q-3 3 -1 9q1 2 14 34t25.5 64t12.5 33q3 7 14 8z" />
    <glyph glyph-name="Ocircumflex" unicode="&#xd4;" horiz-adv-x="802" 
d="M418 708q138 0 237.5 -104.5t99.5 -249.5q0 -170 -97.5 -271.5t-250.5 -101.5q-92 0 -164 32.5t-113 87t-62 118t-21 132.5q0 154 101 255.5t270 101.5zM380 651q-103 0 -161 -75.5t-58 -189.5q0 -177 79.5 -264t200.5 -87q36 0 69.5 16t64 49.5t49 93.5t18.5 139
q0 140 -74.5 228.5t-187.5 89.5zM425 906q16 -37 44 -89.5t36 -63.5q5 -10 0 -12q-5 -5 -33 -12q-6 -3 -14 3q-15 16 -58 93q-4 9 -9 1l-51 -85q-9 -15 -35 -15q-17 0 -10 10q9 9 44.5 76t38.5 76q6 11 10 14q1 0 7.5 2t12.5 4t10 2z" />
    <glyph glyph-name="Otilde" unicode="&#xd5;" horiz-adv-x="802" 
d="M418 708q138 0 237.5 -104.5t99.5 -249.5q0 -170 -97.5 -271.5t-250.5 -101.5q-92 0 -164 32.5t-113 87t-62 118t-21 132.5q0 154 101 255.5t270 101.5zM380 651q-103 0 -161 -75.5t-58 -189.5q0 -177 79.5 -264t200.5 -87q36 0 69.5 16t64 49.5t49 93.5t18.5 139
q0 140 -74.5 228.5t-187.5 89.5zM260 764q12 20 44 39.5t53 19.5q18 0 52 -13.5t54 -13.5q38 0 75 37q8 7 8 -7q0 -6 -2 -15q-5 -16 -31 -37q-44 -32 -78 -32q-18 0 -52.5 12.5t-53.5 12.5q-25 0 -64 -33q-4 -4 -6.5 -2.5t-2.5 3.5l-1 2q0 19 5 27z" />
    <glyph glyph-name="Odieresis" unicode="&#xd6;" horiz-adv-x="802" 
d="M418 708q138 0 237.5 -104.5t99.5 -249.5q0 -170 -97.5 -271.5t-250.5 -101.5q-92 0 -164 32.5t-113 87t-62 118t-21 132.5q0 154 101 255.5t270 101.5zM380 651q-103 0 -161 -75.5t-58 -189.5q0 -177 79.5 -264t200.5 -87q36 0 69.5 16t64 49.5t49 93.5t18.5 139
q0 140 -74.5 228.5t-187.5 89.5zM250 776q0 21 12 31q12 11 39 13q22 5 36 -11q14 -14 11 -33q-1 -18 -14 -35q-13 -16 -39 -16q-19 0 -35 19q-10 15 -10 32zM452 776q0 21 11 31q12 11 39 13q22 5 36 -11q16 -16 11 -33q-1 -20 -13 -35q-13 -16 -39 -16q-19 0 -35 19
q-10 13 -10 32z" />
    <glyph glyph-name="Oslash" unicode="&#xd8;" horiz-adv-x="863" 
d="M452 708q128 0 225 -92l91 93q4 4 10 1l35 -17q5 -3 -1 -9l-103 -103q80 -100 80 -227q0 -170 -97.5 -271.5t-250.5 -101.5q-155 0 -252 92q-78 -75 -100 -94q-6 -4 -12 -1l-26 12q-6 3 -1 8q49 43 112 105q-81 101 -81 248q0 154 101 255.5t270 101.5zM414 651
q-103 0 -161 -75.5t-58 -189.5q0 -125 43 -209q167 165 373 372q-74 100 -197 102zM636 509q-236 -232 -377 -368q76 -106 216 -106q36 0 69.5 16t64 49.5t49 93.5t18.5 139q0 98 -40 176z" />
    <glyph glyph-name="Ugrave" unicode="&#xd9;" horiz-adv-x="817" 
d="M314 655h-47q-14 0 -25 -9t-11 -26v-338q0 -46 9.5 -85t32 -74.5t67 -56t106.5 -20.5t103.5 20t60.5 57t26 73.5t7 85.5v136q0 169 -7 202q-4 15 -22 25t-43 10h-29q-10 0 -10 40q56 -3 131 -3q73 0 129 3q0 -40 -10 -40h-29q-19 0 -35.5 -10.5t-17.5 -24.5
q-4 -28 -4 -104v-234q0 -33 -4 -65t-20 -76t-42.5 -76t-77 -55t-117.5 -23q-167 0 -234 69.5t-67 225.5v338q0 16 -12.5 25.5t-28.5 9.5h-48q-10 0 -10 40q114 -3 140 -3q93 0 149 3q0 -40 -10 -40zM320 877q8 4 73 12q11 1 13 -4q0 -1 11.5 -33.5t23 -65.5t12.5 -35
q2 -6 -1 -9q-1 -1 -7 -6.5t-10 -8.5q-6 -2 -10 3q-15 14 -106 135q-8 9 1 12z" />
    <glyph glyph-name="Uacute" unicode="&#xda;" horiz-adv-x="817" 
d="M314 655h-47q-14 0 -25 -9t-11 -26v-338q0 -46 9.5 -85t32 -74.5t67 -56t106.5 -20.5t103.5 20t60.5 57t26 73.5t7 85.5v136q0 169 -7 202q-4 15 -22 25t-43 10h-29q-10 0 -10 40q56 -3 131 -3q73 0 129 3q0 -40 -10 -40h-29q-19 0 -35.5 -10.5t-17.5 -24.5
q-4 -28 -4 -104v-234q0 -33 -4 -65t-20 -76t-42.5 -76t-77 -55t-117.5 -23q-167 0 -234 69.5t-67 225.5v338q0 16 -12.5 25.5t-28.5 9.5h-48q-10 0 -10 40q114 -3 140 -3q93 0 149 3q0 -40 -10 -40zM463 890l69 -8q2 0 3 -1.5t1 -4.5t-3 -6q-98 -131 -108 -140q-4 -5 -10 -3
q-4 3 -10 8.5t-7 6.5q-3 3 -1 9q1 2 14 34t25.5 64t12.5 33q3 7 14 8z" />
    <glyph glyph-name="Ucircumflex" unicode="&#xdb;" horiz-adv-x="817" 
d="M314 655h-47q-14 0 -25 -9t-11 -26v-338q0 -46 9.5 -85t32 -74.5t67 -56t106.5 -20.5t103.5 20t60.5 57t26 73.5t7 85.5v136q0 169 -7 202q-4 15 -22 25t-43 10h-29q-10 0 -10 40q56 -3 131 -3q73 0 129 3q0 -40 -10 -40h-29q-19 0 -35.5 -10.5t-17.5 -24.5
q-4 -28 -4 -104v-234q0 -33 -4 -65t-20 -76t-42.5 -76t-77 -55t-117.5 -23q-167 0 -234 69.5t-67 225.5v338q0 16 -12.5 25.5t-28.5 9.5h-48q-10 0 -10 40q114 -3 140 -3q93 0 149 3q0 -40 -10 -40zM438 906q16 -37 44 -89.5t36 -63.5q5 -10 0 -12q-5 -5 -33 -12
q-6 -3 -14 3q-15 16 -58 93q-4 9 -9 1l-51 -85q-9 -15 -35 -15q-17 0 -10 10q9 9 44.5 76t38.5 76q5 11 10 14q1 0 7.5 2t12.5 4t10 2z" />
    <glyph glyph-name="Udieresis" unicode="&#xdc;" horiz-adv-x="817" 
d="M314 655h-47q-14 0 -25 -9t-11 -26v-338q0 -46 9.5 -85t32 -74.5t67 -56t106.5 -20.5t103.5 20t60.5 57t26 73.5t7 85.5v136q0 169 -7 202q-4 15 -22 25t-43 10h-29q-10 0 -10 40q56 -3 131 -3q73 0 129 3q0 -40 -10 -40h-29q-19 0 -35.5 -10.5t-17.5 -24.5
q-4 -28 -4 -104v-234q0 -33 -4 -65t-20 -76t-42.5 -76t-77 -55t-117.5 -23q-167 0 -234 69.5t-67 225.5v338q0 16 -12.5 25.5t-28.5 9.5h-48q-10 0 -10 40q114 -3 140 -3q93 0 149 3q0 -40 -10 -40zM263 777q0 21 12 31q12 11 39 13q22 5 36 -11q14 -14 11 -33
q-1 -18 -14 -35q-13 -16 -39 -16q-19 0 -35 19q-10 15 -10 32zM465 777q0 21 11 31q12 11 39 13q22 5 36 -11q16 -16 11 -33q-1 -20 -13 -35q-13 -16 -39 -16q-19 0 -35 19q-10 13 -10 32z" />
    <glyph glyph-name="Yacute" unicode="&#xdd;" horiz-adv-x="628" 
d="M379 93q5 -56 40 -56h47q10 0 10 -40q-56 3 -154 3q-33 0 -147 -3q0 40 10 40h51q16 0 29.5 15t13.5 41q0 20 1 70t1 84q0 38 -10 58l-14 27q-118 234 -164 296q-18 27 -45 27h-48q-10 0 -10 40q114 -3 140 -3q78 0 133 3q0 -40 -10 -40h-39q-11 0 -11 -9q0 -6 5 -18
q61 -136 145 -283q38 59 89 155t62 128q7 14 -2 20.5t-26 6.5h-48q-10 0 -10 40q114 -3 127 -3q73 0 128 3q0 -40 -10 -40h-39q-26 0 -49 -27q-23 -28 -57 -84t-78.5 -135.5t-59.5 -104.5q-4 -11 -4 -84q0 -92 3 -127zM393 889l69 -8q2 0 3 -1.5t1 -4.5t-3 -6
q-98 -131 -108 -140q-4 -5 -10 -3q-4 3 -10 8.5t-7 6.5q-3 3 -1 9q1 2 14 34t25.5 64t12.5 33q3 7 14 8z" />
    <glyph glyph-name="germandbls" unicode="&#xdf;" horiz-adv-x="575" 
d="M74 33h36q13 0 15 19l2 163q0 27 1 70q0 14 3 95q-2 19 -15 19l-42 1q-4 0 -4 3v26q0 7 4 8q1 0 13.5 2.5t25.5 4.5t20 3q5 123 53 180q8 11 22 23q24 23 66 45q56 30 99 30q24 0 51.5 -14.5t43.5 -35.5q33 -45 33 -97q0 -79 -83 -152l-6.5 -6.5l-6.5 -6.5t-5.5 -6
t-5 -6.5t-2.5 -6t-1 -6.5q0 -10 6 -18q2 -4 94 -86q47 -43 47 -111q0 -71 -56 -128.5t-127 -57.5q-35 0 -56 15q-9 6 -9 13q-1 13 6 56q1 11 9 3q40 -32 90 -32q33 0 53.5 18t20.5 56q0 21 -4 38.5t-11 29t-13 19.5t-13 14.5t-8 7.5q-3 3 -19 17.5t-34 29t-33 26.5l-15 13
q-7 5 -7 14q-3 20 0 37q1 8 7 14q112 101 112 162q0 42 -8 62q-14 34 -32 51t-31 19.5t-35 2.5q-70 0 -99 -82q-15 -51 -15 -230v-36t0.5 -38.5t1 -34t0.5 -25.5v-11l3 -164q2 -19 14 -19h33q10 0 10 -36q-55 3 -103 3q-21 0 -38 -0.5t-36 -1.5t-32 -1q0 36 10 36z" />
    <glyph glyph-name="agrave" unicode="&#xe0;" horiz-adv-x="458" 
d="M298 98v107q-86 -19 -139 -43q-43 -19 -43 -57q0 -26 15.5 -42t37.5 -16q61 0 129 51zM69 373q0 9 5 13q2 1 15 11t27 19.5t32 20t37.5 17t36.5 6.5q23 0 48.5 -6t52 -19t43.5 -38.5t17 -58.5v-167l2 -98q3 -38 38 -38h19q6 0 6 -4v-21q0 -7 -5 -8q-110 -17 -115 -17
l-10 3l-20 22v53q-80 -76 -146 -76q-50 0 -83 32.5t-33 84.5q0 33 24 55.5t56 33.5q84 30 182 45v73q-1 36 -27.5 64.5t-87.5 28.5q-48 0 -53 -29q-3 -16 -7 -70q0 -3 -3 -4q-32 0 -46 2q-3 0 -3 3zM161 676q8 4 73 12q11 1 13 -4q0 -1 11.5 -33.5t23 -65.5t12.5 -35
q2 -6 -1 -9q-1 -1 -7 -6.5t-10 -8.5q-6 -2 -10 3q-15 14 -106 135q-8 9 1 12z" />
    <glyph glyph-name="aacute" unicode="&#xe1;" horiz-adv-x="458" 
d="M298 98v107q-86 -19 -139 -43q-43 -19 -43 -57q0 -26 15.5 -42t37.5 -16q61 0 129 51zM69 373q0 9 5 13q2 1 15 11t27 19.5t32 20t37.5 17t36.5 6.5q23 0 48.5 -6t52 -19t43.5 -38.5t17 -58.5v-167l2 -98q3 -38 38 -38h19q6 0 6 -4v-21q0 -7 -5 -8q-110 -17 -115 -17
l-10 3l-20 22v53q-80 -76 -146 -76q-50 0 -83 32.5t-33 84.5q0 33 24 55.5t56 33.5q84 30 182 45v73q-1 36 -27.5 64.5t-87.5 28.5q-48 0 -53 -29q-3 -16 -7 -70q0 -3 -3 -4q-32 0 -46 2q-3 0 -3 3zM263 690l69 -8q2 0 3 -1.5t1 -4.5t-3 -6q-98 -131 -108 -140q-4 -5 -10 -3
q-4 3 -10 8.5t-7 6.5q-3 3 -1 9q1 2 14 34t25.5 64t12.5 33q3 7 14 8z" />
    <glyph glyph-name="acircumflex" unicode="&#xe2;" horiz-adv-x="458" 
d="M298 98v107q-86 -19 -139 -43q-43 -19 -43 -57q0 -26 15.5 -42t37.5 -16q61 0 129 51zM69 373q0 9 5 13q2 1 15 11t27 19.5t32 20t37.5 17t36.5 6.5q23 0 48.5 -6t52 -19t43.5 -38.5t17 -58.5v-167l2 -98q3 -38 38 -38h19q6 0 6 -4v-21q0 -7 -5 -8q-110 -17 -115 -17
l-10 3l-20 22v53q-80 -76 -146 -76q-50 0 -83 32.5t-33 84.5q0 33 24 55.5t56 33.5q84 30 182 45v73q-1 36 -27.5 64.5t-87.5 28.5q-48 0 -53 -29q-3 -16 -7 -70q0 -3 -3 -4q-32 0 -46 2q-3 0 -3 3zM250 695q16 -37 44 -89.5t36 -63.5q5 -10 0 -12q-5 -5 -33 -12
q-6 -3 -14 3q-15 16 -58 93q-4 9 -9 1q-3 -5 -13 -22.5t-23 -38t-15 -24.5q-9 -15 -35 -15q-17 0 -10 10q9 9 44.5 76t38.5 76q5 11 10 14q1 0 7.5 2t12.5 4t10 2z" />
    <glyph glyph-name="atilde" unicode="&#xe3;" horiz-adv-x="458" 
d="M298 98v107q-86 -19 -139 -43q-43 -19 -43 -57q0 -26 15.5 -42t37.5 -16q61 0 129 51zM69 373q0 9 5 13q2 1 15 11t27 19.5t32 20t37.5 17t36.5 6.5q23 0 48.5 -6t52 -19t43.5 -38.5t17 -58.5v-167l2 -98q3 -38 38 -38h19q6 0 6 -4v-21q0 -7 -5 -8q-110 -17 -115 -17
l-10 3l-20 22v53q-80 -76 -146 -76q-50 0 -83 32.5t-33 84.5q0 33 24 55.5t56 33.5q84 30 182 45v73q-1 36 -27.5 64.5t-87.5 28.5q-48 0 -53 -29q-3 -16 -7 -70q0 -3 -3 -4q-32 0 -46 2q-3 0 -3 3zM84 586q12 20 44 39.5t53 19.5q18 0 52 -13.5t54 -13.5q38 0 75 37
q8 7 8 -7q0 -6 -2 -15q-5 -16 -31 -37q-44 -32 -78 -32q-18 0 -52.5 12.5t-53.5 12.5q-25 0 -64 -33q-4 -4 -6.5 -2.5t-2.5 3.5l-1 2q0 19 5 27z" />
    <glyph glyph-name="adieresis" unicode="&#xe4;" horiz-adv-x="458" 
d="M298 98v107q-86 -19 -139 -43q-43 -19 -43 -57q0 -26 15.5 -42t37.5 -16q61 0 129 51zM69 373q0 9 5 13q2 1 15 11t27 19.5t32 20t37.5 17t36.5 6.5q23 0 48.5 -6t52 -19t43.5 -38.5t17 -58.5v-167l2 -98q3 -38 38 -38h19q6 0 6 -4v-21q0 -7 -5 -8q-110 -17 -115 -17
l-10 3l-20 22v53q-80 -76 -146 -76q-50 0 -83 32.5t-33 84.5q0 33 24 55.5t56 33.5q84 30 182 45v73q-1 36 -27.5 64.5t-87.5 28.5q-48 0 -53 -29q-3 -16 -7 -70q0 -3 -3 -4q-32 0 -46 2q-3 0 -3 3zM74 613q0 21 12 31q12 11 39 13q22 5 36 -11q14 -14 11 -33
q-1 -18 -14 -35q-13 -16 -39 -16q-19 0 -35 19q-10 15 -10 32zM276 613q0 21 11 31q12 11 39 13q22 5 36 -11q16 -16 11 -33q-1 -20 -13 -35q-13 -16 -39 -16q-19 0 -35 19q-10 13 -10 32z" />
    <glyph glyph-name="aring" unicode="&#xe5;" horiz-adv-x="458" 
d="M298 98v107q-86 -19 -139 -43q-43 -19 -43 -57q0 -26 15.5 -42t37.5 -16q61 0 129 51zM69 373q0 9 5 13q2 1 15 11t27 19.5t32 20t37.5 17t36.5 6.5q23 0 48.5 -6t52 -19t43.5 -38.5t17 -58.5v-167l2 -98q3 -38 38 -38h19q6 0 6 -4v-21q0 -7 -5 -8q-110 -17 -115 -17
l-10 3l-20 22v53q-80 -76 -146 -76q-50 0 -83 32.5t-33 84.5q0 33 24 55.5t56 33.5q84 30 182 45v73q-1 36 -27.5 64.5t-87.5 28.5q-48 0 -53 -29q-3 -16 -7 -70q0 -3 -3 -4q-32 0 -46 2q-3 0 -3 3zM231 682q36 0 57 -21t21 -52q0 -35 -23 -56t-59 -21q-27 0 -53 18t-26 55
q0 35 21 56t62 21zM227 645q-47 0 -47 -39q0 -17 15 -27t36 -10q19 0 33 10.5t14 25.5q0 40 -51 40z" />
    <glyph glyph-name="ae" unicode="&#xe6;" horiz-adv-x="715" 
d="M654 83q24 -22 15 -31q-65 -65 -168 -65q-122 0 -180 80q-7 7 -13 -1q-32 -36 -75 -57.5t-81 -21.5q-50 0 -83 32.5t-33 84.5q0 33 24 55.5t56 33.5q84 30 182 45v73q0 36 -26.5 64.5t-88.5 28.5q-16 0 -37 -7h1q-15 -7 -17 -22q-3 -16 -7 -70q0 -3 -3 -4q-32 0 -46 2
q-3 0 -3 3l-2 67q0 10 3 12q1 1 18 13.5t36.5 25.5t46.5 24.5t49 11.5q35 0 75.5 -14.5t63.5 -44.5q67 59 147 59q84 0 126.5 -52.5t42.5 -150.5l-305 -43q5 -78 45 -123.5t109 -45.5q78 0 128 38zM371 249l221 39q0 49 -26 90t-74 41q-118 0 -121 -170zM159 162
q-43 -19 -43 -57q0 -26 15.5 -42t37.5 -16q61 0 129 51v104q-85 -15 -139 -40z" />
    <glyph glyph-name="ccedilla" unicode="&#xe7;" horiz-adv-x="470" 
d="M415 82q25 -23 16 -32l-10 -9q-60 -54 -158 -54q-70 0 -121.5 37t-73.5 88t-22 107q1 107 62.5 174t173.5 67q33 0 68 -10.5t55 -25.5q1 0 1.5 -1t1.5 -4.5t0 -8.5l-12 -99q0 -3 -4 -3h-4t-4.5 -0.5t-5 -0.5h-5h-5h-5h-4.5h-3.5h-2.5h-1q-4 0 -4 4q-3 41 -7 60
q-11 48 -86 48q-69 0 -94 -51.5t-26 -146.5q0 -69 42 -127t111 -58q62 0 104 29zM236 -9h40l-29 -44q30 -6 55 -26q24 -20 24 -56q0 -32 -23.5 -57t-50 -35.5t-46.5 -10.5q-35 0 -58 28q-3 3 -3 8q0 13 2 19q1 4 4 3q37 -19 70 -19q20 0 37 15t17 32q0 18 -4 28.5
t-24.5 20.5t-61.5 13q-8 2 -1 11q31 42 52 70z" />
    <glyph glyph-name="egrave" unicode="&#xe8;" horiz-adv-x="475" 
d="M416 83q24 -22 15 -31q-65 -65 -168 -65q-112 0 -164.5 65.5t-52.5 169.5q1 100 66.5 169t157.5 69q85 0 127.5 -53.5t42.5 -155.5l-307 -15q1 -87 41 -139t114 -52q78 0 128 38zM254 419q-110 0 -120 -147l218 19q0 49 -25 88.5t-73 39.5zM168 676q8 4 73 12q11 1 13 -4
q0 -1 11.5 -33.5t23 -65.5t12.5 -35q2 -6 -1 -9q-1 -1 -7 -6.5t-10 -8.5q-6 -2 -10 3q-15 14 -106 135q-8 9 1 12z" />
    <glyph glyph-name="eacute" unicode="&#xe9;" horiz-adv-x="475" 
d="M416 83q24 -22 15 -31q-65 -65 -168 -65q-112 0 -164.5 65.5t-52.5 169.5q1 100 66.5 169t157.5 69q85 0 127.5 -53.5t42.5 -155.5l-307 -15q1 -87 41 -139t114 -52q78 0 128 38zM254 419q-110 0 -120 -147l218 19q0 49 -25 88.5t-73 39.5zM268 689l69 -8q2 0 3 -1.5
t1 -4.5t-3 -6q-98 -131 -108 -140q-4 -5 -10 -3q-4 3 -10 8.5t-7 6.5q-3 3 -1 9q1 2 14 34t25.5 64t12.5 33q3 7 14 8z" />
    <glyph glyph-name="ecircumflex" unicode="&#xea;" horiz-adv-x="475" 
d="M416 83q24 -22 15 -31q-65 -65 -168 -65q-112 0 -164.5 65.5t-52.5 169.5q1 100 66.5 169t157.5 69q85 0 127.5 -53.5t42.5 -155.5l-307 -15q1 -87 41 -139t114 -52q78 0 128 38zM254 419q-110 0 -120 -147l218 19q0 49 -25 88.5t-73 39.5zM267 695q16 -37 44 -89.5
t36 -63.5q5 -10 0 -12q-5 -5 -33 -12q-6 -3 -14 3q-15 16 -58 93q-4 9 -9 1q-3 -5 -13 -22.5t-23 -38t-15 -24.5q-9 -15 -35 -15q-17 0 -10 10q9 9 44.5 76t38.5 76q6 11 10 14q1 0 7.5 2t12.5 4t10 2z" />
    <glyph glyph-name="edieresis" unicode="&#xeb;" horiz-adv-x="475" 
d="M416 83q24 -22 15 -31q-65 -65 -168 -65q-112 0 -164.5 65.5t-52.5 169.5q1 100 66.5 169t157.5 69q85 0 127.5 -53.5t42.5 -155.5l-307 -15q1 -87 41 -139t114 -52q78 0 128 38zM254 419q-110 0 -120 -147l218 19q0 49 -25 88.5t-73 39.5zM108 613q0 21 12 31
q12 11 39 13q22 5 36 -11q14 -14 11 -33q-1 -18 -14 -35q-13 -16 -39 -16q-19 0 -35 19q-10 15 -10 32zM310 613q0 21 11 31q12 11 39 13q22 5 36 -11q16 -16 11 -33q-1 -20 -13 -35q-13 -16 -39 -16q-19 0 -35 19q-10 13 -10 32z" />
    <glyph glyph-name="igrave" unicode="&#xec;" horiz-adv-x="312" 
d="M37 -3q0 36 10 36h48q15 -1 15 19q4 54 4 100v227q0 24 -28 24h-40q-5 0 -5 4v22q0 7 5 8l32 5q33 6 62 11t30 5l10 -3l20 -22v-281l5 -100q0 -8 3.5 -13t7.5 -5l3 -1h47q10 0 10 -36q-73 3 -122 3zM62 675q8 4 73 12q11 1 13 -4q0 -1 11.5 -33.5t23 -65.5t12.5 -35
q2 -6 -1 -9q-1 -1 -7 -6.5t-10 -8.5q-6 -2 -10 3q-15 14 -106 135q-8 9 1 12z" />
    <glyph glyph-name="iacute" unicode="&#xed;" horiz-adv-x="312" 
d="M37 -3q0 36 10 36h48q15 -1 15 19q4 54 4 100v227q0 24 -28 24h-40q-5 0 -5 4v22q0 7 5 8l32 5q33 6 62 11t30 5l10 -3l20 -22v-281l5 -100q0 -8 3.5 -13t7.5 -5l3 -1h47q10 0 10 -36q-73 3 -122 3zM160 690l69 -8q2 0 3 -1.5t1 -4.5t-3 -6q-98 -131 -108 -140
q-4 -5 -10 -3q-4 3 -10 8.5t-7 6.5q-3 3 -1 9q1 2 14 34t25.5 64t12.5 33q3 7 14 8z" />
    <glyph glyph-name="icircumflex" unicode="&#xee;" horiz-adv-x="312" 
d="M37 -3q0 36 10 36h48q15 -1 15 19q4 54 4 100v227q0 24 -28 24h-40q-5 0 -5 4v22q0 7 5 8l32 5q33 6 62 11t30 5l10 -3l20 -22v-281l5 -100q0 -8 3.5 -13t7.5 -5l3 -1h47q10 0 10 -36q-73 3 -122 3zM183 694q16 -37 44 -89.5t36 -63.5q5 -10 0 -12q-5 -5 -33 -12
q-6 -3 -14 3q-15 16 -58 93q-4 9 -9 1l-51 -85q-9 -15 -35 -15q-17 0 -10 10q9 9 44.5 76t38.5 76q6 11 10 14q1 0 7.5 2t12.5 4t10 2z" />
    <glyph glyph-name="idieresis" unicode="&#xef;" horiz-adv-x="373" 
d="M72 -3q0 36 10 36h48q15 -1 15 19q4 54 4 100v227q0 24 -28 24h-40q-5 0 -5 4v22q0 7 5 8l33 5q32 6 61 11t30 5l10 -3l20 -22v-281l5 -100q0 -8 3.5 -13t6.5 -5l4 -1h47q10 0 10 -36q-73 3 -122 3zM37 609q0 21 12 31q12 11 39 13q22 5 36 -11q14 -14 11 -33
q-1 -18 -14 -35q-13 -16 -39 -16q-19 0 -35 19q-10 15 -10 32zM239 609q0 21 11 31q12 11 39 13q22 5 36 -11q16 -16 11 -33q-1 -20 -13 -35q-13 -16 -39 -16q-19 0 -35 19q-10 13 -10 32z" />
    <glyph glyph-name="ntilde" unicode="&#xf1;" horiz-adv-x="610" 
d="M350 33h49q12 0 14 19q5 54 5 100v134q0 24 -2 38.5t-10.5 33.5t-29 28.5t-53.5 9.5q-43 0 -82 -27t-41 -55v-162l5 -100q2 -19 14 -19h47q10 0 10 -36q-56 3 -122 3q-3 0 -117 -3q0 36 10 36h48q12 0 15 19q4 54 4 100v224q0 26 -28 26h-40q-5 0 -5 4v22q0 7 5 8l32 6
q33 5 62 10t30 5l10 -3l20 -22v-55q1 0 10 9t23 20.5t32.5 23t42.5 19.5t48 8q62 0 105 -35t43 -95v-175q0 -87 4 -99q2 -20 15 -20h47q10 0 10 -36q-56 3 -122 3q-4 0 -118 -3q0 36 10 36zM172 584q12 20 44 39.5t53 19.5q18 0 52 -13.5t54 -13.5q38 0 75 37q8 7 8 -7
q0 -6 -2 -15q-5 -16 -31 -37q-44 -32 -78 -32q-18 0 -52.5 12.5t-53.5 12.5q-25 0 -64 -33q-4 -4 -6.5 -2.5t-2.5 3.5l-1 2q0 19 5 27z" />
    <glyph glyph-name="ograve" unicode="&#xf2;" horiz-adv-x="542" 
d="M136 245q0 -90 39.5 -152t107.5 -62q62 0 92.5 51t30.5 120q0 90 -39.5 152t-107.5 62q-62 0 -92.5 -51t-30.5 -120zM46 213q0 103 66.5 175t171.5 72q107 0 159.5 -62t52.5 -164q0 -103 -66.5 -175t-171.5 -72q-107 0 -159.5 62t-52.5 164zM202 677q8 4 73 12
q11 1 13 -4q0 -1 11.5 -33.5t23 -65.5t12.5 -35q2 -6 -1 -9q-1 -1 -7 -6.5t-10 -8.5q-6 -2 -10 3q-15 14 -106 135q-8 9 1 12z" />
    <glyph glyph-name="oacute" unicode="&#xf3;" horiz-adv-x="542" 
d="M136 245q0 -90 39.5 -152t107.5 -62q62 0 92.5 51t30.5 120q0 90 -39.5 152t-107.5 62q-62 0 -92.5 -51t-30.5 -120zM46 213q0 103 66.5 175t171.5 72q107 0 159.5 -62t52.5 -164q0 -103 -66.5 -175t-171.5 -72q-107 0 -159.5 62t-52.5 164zM282 690l69 -8q2 0 3 -1.5
t1 -4.5t-3 -6q-98 -131 -108 -140q-4 -5 -10 -3q-4 3 -10 8.5t-7 6.5q-3 3 -1 9q1 2 14 34t25.5 64t12.5 33q3 7 14 8z" />
    <glyph glyph-name="ocircumflex" unicode="&#xf4;" horiz-adv-x="542" 
d="M136 245q0 -90 39.5 -152t107.5 -62q62 0 92.5 51t30.5 120q0 90 -39.5 152t-107.5 62q-62 0 -92.5 -51t-30.5 -120zM46 213q0 103 66.5 175t171.5 72q107 0 159.5 -62t52.5 -164q0 -103 -66.5 -175t-171.5 -72q-107 0 -159.5 62t-52.5 164zM313 694q16 -37 44 -89.5
t36 -63.5q5 -10 0 -12q-5 -5 -33 -12q-6 -3 -14 3q-15 16 -58 93q-4 9 -9 1l-51 -85q-9 -15 -35 -15q-17 0 -10 10q9 9 44.5 76t38.5 76q5 11 10 14q1 0 7.5 2t12.5 4t10 2z" />
    <glyph glyph-name="otilde" unicode="&#xf5;" horiz-adv-x="542" 
d="M136 245q0 -90 39.5 -152t107.5 -62q62 0 92.5 51t30.5 120q0 90 -39.5 152t-107.5 62q-62 0 -92.5 -51t-30.5 -120zM46 213q0 103 66.5 175t171.5 72q107 0 159.5 -62t52.5 -164q0 -103 -66.5 -175t-171.5 -72q-107 0 -159.5 62t-52.5 164zM151 586q12 20 44 39.5
t53 19.5q18 0 52 -13.5t54 -13.5q38 0 75 37q8 7 8 -7q0 -6 -2 -15q-5 -16 -31 -37q-44 -32 -78 -32q-18 0 -52.5 12.5t-53.5 12.5q-25 0 -64 -33q-4 -4 -6.5 -2.5t-3.5 3.5v2q0 19 5 27z" />
    <glyph glyph-name="odieresis" unicode="&#xf6;" horiz-adv-x="542" 
d="M136 245q0 -90 39.5 -152t107.5 -62q62 0 92.5 51t30.5 120q0 90 -39.5 152t-107.5 62q-62 0 -92.5 -51t-30.5 -120zM46 213q0 103 66.5 175t171.5 72q107 0 159.5 -62t52.5 -164q0 -103 -66.5 -175t-171.5 -72q-107 0 -159.5 62t-52.5 164zM141 613q0 21 12 31
q12 11 39 13q22 5 36 -11q14 -14 11 -33q-1 -18 -14 -35q-13 -16 -39 -16q-19 0 -35 19q-10 15 -10 32zM343 613q0 21 11 31q12 11 39 13q22 5 36 -11q16 -16 11 -33q-1 -20 -13 -35q-13 -16 -39 -16q-19 0 -35 19q-10 13 -10 32z" />
    <glyph glyph-name="divide" unicode="&#xf7;" 
d="M74 283q5 1 191.5 1.5t221.5 -0.5q5 0 5 -4v-3q0 -10 -2.5 -28.5t-5.5 -19.5q-6 -1 -208 -1.5t-213 0.5l-3 7q4 29 9 45q1 3 5 3zM215 102q-2 17 -0.5 26t9.5 20q10 14 34 16q39 4 55 -15q8 -11 7 -46q-2 -24 -12 -33q-14 -13 -50 -13q-23 0 -35 16q-5 6 -8 29zM215 382
q-2 17 -0.5 26t9.5 20q10 14 34 16q39 4 55 -15q8 -11 7 -46q-2 -24 -12 -33q-14 -13 -50 -13q-23 0 -35 16q-5 6 -8 29z" />
    <glyph glyph-name="oslash" unicode="&#xf8;" horiz-adv-x="520" 
d="M20 213q0 103 66.5 175t171.5 72q109 0 165 -69l66 67q4 4 10 1l24 -14q5 -3 -1 -9l-78 -78q26 -51 26 -124q0 -103 -66.5 -175t-171.5 -72q-84 0 -137 40q-12 -12 -30.5 -28t-20.5 -18q-6 -4 -12 -1l-19 9q-6 3 -1 8l59 53q-51 60 -51 163zM110 245q0 -74 28 -132
q70 66 218 211q-40 92 -123 92q-62 0 -92.5 -51t-30.5 -120zM369 287q-99 -96 -213 -203q39 -53 101 -53t92.5 51t30.5 120q0 43 -11 85z" />
    <glyph glyph-name="ugrave" unicode="&#xf9;" horiz-adv-x="578" 
d="M402 129v159q0 32 -2 80q-2 21 -8 28.5t-21 7.5h-37q-5 0 -5 4v22q0 7 5 8l32 6q33 5 62 10t30 5l10 -3l20 -22v-359q0 -19 5 -27t23 -8h19q6 0 6 -4v-21q0 -7 -5 -8q-25 -4 -50.5 -9t-39 -8t-14.5 -3l-10 3l-20 21v52l-9 -9q-9 -9 -22.5 -20t-31 -22.5t-41 -19.5
t-47.5 -8q-53 0 -100.5 35t-47.5 93v176q0 8 -3 80q-2 21 -7.5 28.5t-20.5 7.5h-37q-5 0 -5 4v22q0 7 5 8l33 6q32 5 61 10t30 5l10 -3l20 -22v-281q0 -107 94 -107q37 0 76.5 27t42.5 56zM182 677q8 4 73 12q11 1 13 -4q0 -1 11.5 -33.5t23 -65.5t12.5 -35q2 -6 -1 -9
q-1 -1 -7 -6.5t-10 -8.5q-6 -2 -10 3q-15 14 -106 135q-8 9 1 12z" />
    <glyph glyph-name="uacute" unicode="&#xfa;" horiz-adv-x="578" 
d="M402 129v159q0 32 -2 80q-2 21 -8 28.5t-21 7.5h-37q-5 0 -5 4v22q0 7 5 8l32 6q33 5 62 10t30 5l10 -3l20 -22v-359q0 -19 5 -27t23 -8h19q6 0 6 -4v-21q0 -7 -5 -8q-25 -4 -50.5 -9t-39 -8t-14.5 -3l-10 3l-20 21v52l-9 -9q-9 -9 -22.5 -20t-31 -22.5t-41 -19.5
t-47.5 -8q-53 0 -100.5 35t-47.5 93v176q0 8 -3 80q-2 21 -7.5 28.5t-20.5 7.5h-37q-5 0 -5 4v22q0 7 5 8l33 6q32 5 61 10t30 5l10 -3l20 -22v-281q0 -107 94 -107q37 0 76.5 27t42.5 56zM311 689l69 -8q2 0 3 -1.5t1 -4.5t-3 -6q-98 -131 -108 -140q-4 -5 -10 -3
q-4 3 -10 8.5t-7 6.5q-3 3 -1 9q1 2 14 34t25.5 64t12.5 33q3 7 14 8z" />
    <glyph glyph-name="ucircumflex" unicode="&#xfb;" horiz-adv-x="578" 
d="M402 129v159q0 32 -2 80q-2 21 -8 28.5t-21 7.5h-37q-5 0 -5 4v22q0 7 5 8l32 6q33 5 62 10t30 5l10 -3l20 -22v-359q0 -19 5 -27t23 -8h19q6 0 6 -4v-21q0 -7 -5 -8q-25 -4 -50.5 -9t-39 -8t-14.5 -3l-10 3l-20 21v52l-9 -9q-9 -9 -22.5 -20t-31 -22.5t-41 -19.5
t-47.5 -8q-53 0 -100.5 35t-47.5 93v176q0 8 -3 80q-2 21 -7.5 28.5t-20.5 7.5h-37q-5 0 -5 4v22q0 7 5 8l33 6q32 5 61 10t30 5l10 -3l20 -22v-281q0 -107 94 -107q37 0 76.5 27t42.5 56zM302 699q16 -37 44 -89.5t36 -63.5q5 -10 0 -12q-5 -5 -33 -12q-6 -3 -14 3
q-15 16 -58 93q-4 9 -9 1l-51 -85q-9 -15 -35 -15q-17 0 -10 10q9 9 44.5 76t38.5 76q5 11 10 14q1 0 7.5 2t12.5 4t10 2z" />
    <glyph glyph-name="udieresis" unicode="&#xfc;" horiz-adv-x="578" 
d="M402 129v159q0 32 -2 80q-2 21 -8 28.5t-21 7.5h-37q-5 0 -5 4v22q0 7 5 8l32 6q33 5 62 10t30 5l10 -3l20 -22v-359q0 -19 5 -27t23 -8h19q6 0 6 -4v-21q0 -7 -5 -8q-25 -4 -50.5 -9t-39 -8t-14.5 -3l-10 3l-20 21v52l-9 -9q-9 -9 -22.5 -20t-31 -22.5t-41 -19.5
t-47.5 -8q-53 0 -100.5 35t-47.5 93v176q0 8 -3 80q-2 21 -7.5 28.5t-20.5 7.5h-37q-5 0 -5 4v22q0 7 5 8l33 6q32 5 61 10t30 5l10 -3l20 -22v-281q0 -107 94 -107q37 0 76.5 27t42.5 56zM122 610q0 21 12 31q12 11 39 13q22 5 36 -11q14 -14 11 -33q-1 -18 -14 -35
q-13 -16 -39 -16q-19 0 -35 19q-10 15 -10 32zM324 610q0 21 11 31q12 11 39 13q22 5 36 -11q16 -16 11 -33q-1 -20 -13 -35q-13 -16 -39 -16q-19 0 -35 19q-10 13 -10 32z" />
    <glyph glyph-name="yacute" unicode="&#xfd;" horiz-adv-x="492" 
d="M132 -193l76 187q-19 62 -84 229t-71 173q-10 18 -34 18h-34q-10 0 -10 36q114 -3 117 -3q86 0 123 3q0 -36 -11 -36h-36q-21 0 -21 -13q0 -3 1 -5q64 -165 108 -286l110 274q5 12 -1 21t-19 9h-32q-10 0 -10 36q10 0 46 -1.5t55 -1.5q55 0 92 3q0 -36 -10 -36h-29
q-34 0 -46 -30l-214 -535q-15 -37 -26 -56t-39 -51q-12 -12 -20 -12l-78 2l-3 3q-2 14 -2 47q0 3 4 3q72 5 76 6q16 4 22 16zM262 690l69 -8q2 0 3 -1.5t1 -4.5t-3 -6q-98 -131 -108 -140q-4 -5 -10 -3q-4 3 -10 8.5t-7 6.5q-3 3 -1 9q1 2 14 34t25.5 64t12.5 33q3 7 14 8z
" />
    <glyph glyph-name="ydieresis" unicode="&#xff;" horiz-adv-x="492" 
d="M132 -193l76 187q-19 62 -84 229t-71 173q-10 18 -34 18h-34q-10 0 -10 36q114 -3 117 -3q86 0 123 3q0 -36 -11 -36h-36q-21 0 -21 -13q0 -3 1 -5q64 -165 108 -286l110 274q5 12 -1 21t-19 9h-32q-10 0 -10 36q10 0 46 -1.5t55 -1.5q55 0 92 3q0 -36 -10 -36h-29
q-34 0 -46 -30l-214 -535q-15 -37 -26 -56t-39 -51q-12 -12 -20 -12l-78 2l-3 3q-2 14 -2 47q0 3 4 3q72 5 76 6q16 4 22 16zM90 609q0 21 12 31q12 11 39 13q22 5 36 -11q14 -14 11 -33q-1 -18 -14 -35q-13 -16 -39 -16q-19 0 -35 19q-10 15 -10 32zM292 609q0 21 11 31
q12 11 39 13q22 5 36 -11q16 -16 11 -33q-1 -20 -13 -35q-13 -16 -39 -16q-19 0 -35 19q-10 13 -10 32z" />
    <glyph glyph-name="dotlessi" unicode="&#x131;" horiz-adv-x="312" 
d="M37 -3q0 36 10 36h48q15 -1 15 19q4 54 4 100v227q0 24 -28 24h-40q-5 0 -5 4v22q0 7 5 8l32 5q33 6 62 11t30 5l10 -3l20 -22v-281l5 -100q0 -8 3.5 -13t7.5 -5l3 -1h47q10 0 10 -36q-73 3 -122 3z" />
    <glyph glyph-name="OE" unicode="&#x152;" horiz-adv-x="1054" 
d="M797 0h-236q-41 0 -64 -5q-1 -1 -3 -1l-12 -3q-42 -10 -89 -10q-92 0 -164 32.5t-113 87t-62 118t-21 132.5q0 154 101 255.5t270 101.5q40 0 76 -9q30 -6 54 -7h351l18 -19q3 -2 3 -10l-5 -105q0 -4 -5 -4l-40 -2q-4 0 -4 4q-1 46 -13.5 67t-53.5 21h-157q-26 0 -28 -27
v-237q2 -3 7 -3h156q62 0 62 40l4 31q1 8 13.5 11t25.5 -5q-8 -51 -8 -99q0 -35 2 -109q-14 -7 -25.5 -3t-11.5 15v26q0 22 -19 33.5t-43 11.5h-156q-5 0 -7 -4v-250q6 -28 32 -28h181q26 0 43.5 11t37.5 50q7 13 15 52q2 5 7 3q5 -1 35 -11q5 -2 5 -7q-16 -98 -24 -133
q-3 -8 -14 -9q-38 -3 -121 -3zM427 35q33 0 60 12q12 6 15 21t4 57q0 5 -0.5 16.5t-0.5 17.5v374q0 29 -0.5 42t-5.5 26.5t-14 18.5q-60 31 -119 31q-103 0 -161 -75.5t-58 -189.5q0 -177 79.5 -264t200.5 -87z" />
    <glyph glyph-name="oe" unicode="&#x153;" horiz-adv-x="842" 
d="M762 83q24 -22 15 -31q-65 -65 -168 -65q-132 0 -185 95q-70 -95 -191 -95q-107 0 -159.5 62t-52.5 164q0 103 66.5 175t171.5 72q127 0 180 -92q31 43 77.5 67.5t99.5 24.5q85 0 127.5 -53.5t42.5 -155.5l-307 -15q1 -87 41 -139t114 -52q78 0 128 38zM111 245
q0 -90 39.5 -152t107.5 -62q62 0 92.5 51t30.5 120q0 90 -39.5 152t-107.5 62q-62 0 -92.5 -51t-30.5 -120zM600 419q-110 0 -120 -147l218 19q0 49 -25 88.5t-73 39.5z" />
    <glyph glyph-name="Scaron" unicode="&#x160;" horiz-adv-x="516" 
d="M368 638q-1 1 -3 3.5t-10 8.5t-18 10.5t-28.5 8.5t-40.5 4q-51 0 -85 -28.5t-34 -77.5q0 -53 18 -86t84 -71q21 -12 66 -35.5t63.5 -35.5t44 -35.5t35.5 -52.5t10 -69q0 -95 -73 -148.5t-178 -53.5q-70 0 -158 33q-3 4 -3 8q-1 4 -9.5 60.5t-8.5 62.5q0 5 4 6l38 11
q4 1 6 -3q3 -9 6.5 -22t6 -20t7 -17.5t10.5 -21.5q1 -2 4 -6t13.5 -13.5t24.5 -17t38.5 -13.5t53.5 -6q58 0 93 35.5t35 92.5q0 76 -145 153q-174 94 -174 206q0 95 62.5 148t160.5 53q8 0 16 -0.5t15.5 -0.5t15 -1t13.5 -1.5t11.5 -1t9.5 -1.5t7 -1h4l2 -1l46 -7l18 -19
l3 -13l-6 -112q0 -4 -4 -4h-8h-10.5h-10h-6.5h-3q-4 0 -4 4q-1 24 -9 51t-16 37zM233 732q-16 37 -44 89.5t-36 63.5q-5 10 0 12q5 5 33 12q6 3 14 -3q15 -16 58 -93q4 -9 9 -1q3 5 13 22.5t23 38t15 24.5q9 15 35 15q17 0 10 -10q-9 -9 -44.5 -76t-38.5 -76q-6 -11 -10 -14
q-1 0 -7.5 -2t-12.5 -4t-10 -2z" />
    <glyph glyph-name="scaron" unicode="&#x161;" horiz-adv-x="375" 
d="M40 324q0 65 46.5 100t119.5 35q7 0 14.5 -0.5t13 -1t9.5 -1t6 -0.5l2 -1l46 -7l25 -26q4 -4 2 -13l-15 -99q0 -3 -4 -3h-7h-8h-7.5h-4.5h-2q-4 0 -4 4q-3 43 -9 65t-10.5 26t-16.5 11q-28 11 -48 11q-32 0 -52.5 -19t-20.5 -41q0 -32 12.5 -50t60.5 -44q8 -4 33.5 -17.5
t35.5 -19.5t29 -19.5t27 -24.5t15 -28t7 -37q0 -69 -52.5 -103.5t-128.5 -34.5q-48 0 -109 21q-8 3 -8 14l-2 109q0 3 3 3l29 4q4 1 5 -3q9 -45 20 -65.5t31 -31.5q25 -13 57 -13q74 0 74 70q0 54 -98 98q-116 52 -116 132zM163 520q-16 37 -44 89.5t-36 63.5q-5 10 0 12
q5 5 33 12q6 3 14 -3q15 -16 58 -93q4 -9 9 -1l51 85q9 15 35 15q17 0 10 -10q-9 -9 -44.5 -76t-38.5 -76q-6 -11 -10 -14q-1 0 -7.5 -2t-12.5 -4t-10 -2z" />
    <glyph glyph-name="Ydieresis" unicode="&#x178;" horiz-adv-x="628" 
d="M379 93q5 -56 40 -56h47q10 0 10 -40q-56 3 -154 3q-33 0 -147 -3q0 40 10 40h51q16 0 29.5 15t13.5 41q0 20 1 70t1 84q0 38 -10 58l-14 27q-118 234 -164 296q-18 27 -45 27h-48q-10 0 -10 40q114 -3 140 -3q78 0 133 3q0 -40 -10 -40h-39q-11 0 -11 -9q0 -6 5 -18
q61 -136 145 -283q38 59 89 155t62 128q7 14 -2 20.5t-26 6.5h-48q-10 0 -10 40q114 -3 127 -3q73 0 128 3q0 -40 -10 -40h-39q-26 0 -49 -27q-23 -28 -57 -84t-78.5 -135.5t-59.5 -104.5q-4 -11 -4 -84q0 -92 3 -127zM204 777q0 21 12 31q12 11 39 13q22 5 36 -11
q14 -14 11 -33q-1 -18 -14 -35q-13 -16 -39 -16q-19 0 -35 19q-10 15 -10 32zM406 777q0 21 11 31q12 11 39 13q22 5 36 -11q16 -16 11 -33q-1 -20 -13 -35q-13 -16 -39 -16q-19 0 -35 19q-10 13 -10 32z" />
    <glyph glyph-name="Zcaron" unicode="&#x17d;" horiz-adv-x="608" 
d="M459 -2q-19 0 -91 1t-168.5 2t-125.5 1l-27 26q15 22 124 181t186.5 276t93.5 148q5 8 -1 8h-270q-42 0 -58.5 -18.5t-26.5 -69.5q-1 -4 -4 -4l-40 2q-5 0 -5 4l13 108l3 10l18 19h107h91h180l91 1l27 -26q-24 -45 -204.5 -318.5t-192.5 -292.5q-2 -3 -2.5 -5t1.5 -2.5
t3.5 -1t5.5 -0.5h6q11 -1 125 -1h141q44 0 61 21t35 81q1 4 4 4l39 -11q5 -1 5 -6l-15 -108q-5 -29 -26 -29h-103zM279 730q-16 37 -44 89.5t-36 63.5q-5 10 0 12q5 5 33 12q6 3 14 -3q15 -16 58 -93q4 -9 9 -1l51 85q9 15 35 15q17 0 10 -10q-9 -9 -44.5 -76t-38.5 -76
q-6 -11 -10 -14q-1 0 -7.5 -2t-12.5 -4t-10 -2z" />
    <glyph glyph-name="zcaron" unicode="&#x17e;" horiz-adv-x="428" 
d="M137 447l56 1h112h56l18 -18q-59 -108 -226 -380q-3 -7 0 -8.5t11 -2.5h4q8 -1 45 -1h77q23 3 33 20t27 75q1 4 5 4q9 0 35 -7q3 -1 3 -5l-17 -115q-1 -5 -4 -8t-6 -4h-2l-50 1q-212 1 -266 1l-17 18q190 288 237 381q3 8 -1 8h-125q-32 -1 -42 -12.5t-27 -67.5
q-1 -4 -5 -3l-6 1q-6 1 -15 3t-14 3q-3 0 -3 3l17 103q1 5 4 8t5 3l3 1zM189 520q-16 37 -44 89.5t-36 63.5q-5 10 0 12q5 5 33 12q6 3 14 -3q15 -16 58 -93q4 -9 9 -1l51 85q9 15 35 15q17 0 10 -10q-9 -9 -44.5 -76t-38.5 -76q-6 -11 -10 -14q-1 0 -7.5 -2t-12.5 -4
t-10 -2z" />
    <glyph glyph-name="circumflex" unicode="&#x2c6;" horiz-adv-x="455" 
d="M271 703q16 -37 44 -89.5t36 -63.5q5 -10 0 -12q-5 -5 -33 -12q-6 -3 -14 3q-15 16 -58 93q-4 9 -9 1q-3 -5 -13 -22.5t-23 -38t-15 -24.5q-9 -15 -35 -15q-17 0 -10 10q9 9 44.5 76t38.5 76q5 11 10 14q1 0 7.5 2t12.5 4t10 2z" />
    <glyph glyph-name="caron" unicode="&#x2c7;" horiz-adv-x="290" 
d="M111 515q-16 37 -44 89.5t-36 63.5q-5 10 0 12q5 5 33 12q6 3 14 -3q15 -16 58 -93q4 -9 9 -1l51 85q9 15 35 15q17 0 10 -10q-9 -9 -44.5 -76t-38.5 -76q-6 -11 -10 -14q-1 0 -7.5 -2t-12.5 -4t-10 -2z" />
    <glyph glyph-name="dotaccent" unicode="&#x2d9;" horiz-adv-x="295" 
d="M100 609q0 27 12 37q12 12 39 14q29 2 41 -12q13 -12 11 -39q-1 -19 -13 -34q-12 -16 -45 -16q-19 0 -35 19q-10 15 -10 31z" />
    <glyph glyph-name="ring" unicode="&#x2da;" horiz-adv-x="241" 
d="M126 702q36 0 57 -21t21 -52q0 -35 -23 -56t-59 -21q-27 0 -53 18t-26 55q0 35 21 56t62 21zM122 665q-47 0 -47 -39q0 -17 15 -27t36 -10q19 0 33 10.5t14 25.5q0 40 -51 40z" />
    <glyph glyph-name="tilde" unicode="&#x2dc;" horiz-adv-x="491" 
d="M142 586q12 20 44 39.5t53 19.5q18 0 52 -13.5t54 -13.5q38 0 75 37q8 7 8 -7q0 -6 -2 -15q-5 -16 -31 -37q-44 -32 -78 -32q-18 0 -52.5 12.5t-53.5 12.5q-25 0 -64 -33q-4 -4 -6.5 -2.5t-2.5 3.5l-1 2q0 19 5 27z" />
    <glyph glyph-name="hungarumlaut" unicode="&#x2dd;" horiz-adv-x="400" 
d="M129 690l69 -8q2 0 3 -1.5t1 -4.5t-3 -6q-2 -2 -24 -36t-44.5 -68t-28.5 -39q-4 -5 -10 -3q-4 3 -10 8.5t-7 6.5q-3 3 -1 9q2 2 22 68l19 66q3 7 14 8zM259 690l69 -8q2 0 3 -1.5t1 -4.5t-3 -6q-1 -1 -17.5 -24t-34 -47.5t-35 -47.5t-21.5 -27q-4 -5 -10 -3q-4 3 -10 8.5
t-7 6.5q-3 3 -1 9q1 2 14 35.5t25.5 67t12.5 34.5q3 7 14 8z" />
    <glyph glyph-name="endash" unicode="&#x2013;" horiz-adv-x="518" 
d="M52 283q5 1 191.5 1.5t221.5 -0.5q5 0 5 -4v-3q0 -10 -2.5 -28.5t-5.5 -19.5q-6 -1 -208 -1.5t-213 0.5l-3 7q4 29 9 45q1 3 5 3z" />
    <glyph glyph-name="emdash" unicode="&#x2014;" horiz-adv-x="1019" 
d="M52 283q5 1 436.5 1.5t466.5 -0.5q5 0 5 -4v-3q0 -10 -2.5 -28.5t-5.5 -19.5q-6 -1 -453 -1.5t-458 0.5l-3 7q4 29 9 45q1 3 5 3z" />
    <glyph glyph-name="quoteleft" unicode="&#x2018;" horiz-adv-x="217" 
d="M63 460q-22 18 -33 35.5t-11 46.5q0 34 9 56q12 29 42 55t51.5 37t30.5 13h2q6 0 14.5 -6t8.5 -11q0 -4 -9 -8q-38 -18 -60 -43t-22 -49q0 -26 27 -44q31 -21 33 -25v-3q-3 -18 -57 -54q-15 -9 -26 0z" />
    <glyph glyph-name="quoteright" unicode="&#x2019;" horiz-adv-x="205" 
d="M145 703q22 -18 33 -35.5t11 -46.5q0 -34 -9 -56q-12 -29 -42 -55t-51.5 -37t-30.5 -13h-2q-6 0 -14.5 6t-8.5 11q0 4 9 8q38 18 60 43t22 49q0 26 -27 44q-31 21 -33 25v3q3 18 57 54q15 9 26 0z" />
    <glyph glyph-name="quotesinglbase" unicode="&#x201a;" horiz-adv-x="277" 
d="M197 151q26 -35 26 -111q0 -31 -5 -50q-10 -40 -34 -72.5t-52 -49.5t-45.5 -25t-25.5 -10q-5 -1 -14 5t-11 11q-1 3 9 9q58 37 81.5 64t23.5 60q0 25 -16 47q-26 37 -30.5 46t0.5 16q6 10 29.5 32.5t36.5 30.5q17 11 27 -3z" />
    <glyph glyph-name="quotedblleft" unicode="&#x201c;" horiz-adv-x="349" 
d="M54 460q-22 18 -33 35.5t-11 46.5q0 34 9 56q12 29 42 55t51.5 37t30.5 13h2q6 0 14.5 -6t8.5 -11q0 -4 -9 -8q-38 -18 -60 -43t-22 -49q0 -26 27 -44q31 -21 33 -25v-3q-3 -18 -57 -54q-15 -9 -26 0zM221 460q-22 18 -33 35.5t-11 46.5q0 34 9 56q12 29 42 55t51.5 37
t30.5 13h2q6 0 14.5 -6t8.5 -11q0 -4 -9 -8q-38 -18 -60 -43t-22 -49q0 -26 27 -44q31 -21 33 -25v-3q-3 -18 -57 -54q-15 -9 -26 0z" />
    <glyph glyph-name="quotedblright" unicode="&#x201d;" horiz-adv-x="370" 
d="M291 703q22 -18 33 -35.5t11 -46.5q0 -34 -9 -56q-12 -29 -42 -55t-51.5 -37t-30.5 -13h-2q-6 0 -14.5 6t-8.5 11q0 4 9 8q38 18 60 43t22 49q0 26 -27 44q-31 21 -33 25v3q3 18 57 54q15 9 26 0zM124 703q22 -18 33 -35.5t11 -46.5q0 -34 -9 -56q-12 -29 -42 -55
t-51.5 -37t-30.5 -13h-2q-6 0 -14.5 6t-8.5 11q0 4 9 8q38 18 60 43t22 49q0 26 -27 44q-31 21 -33 25v3q3 18 57 54q15 9 26 0z" />
    <glyph glyph-name="quotedblbase" unicode="&#x201e;" horiz-adv-x="464" 
d="M197 151q26 -35 26 -111q0 -31 -5 -50q-10 -40 -34 -72.5t-52 -49.5t-45.5 -25t-25.5 -10q-5 -1 -14 5t-11 11q-1 3 9 9q58 37 81.5 64t23.5 60q0 25 -16 47q-26 37 -30.5 46t0.5 16q6 10 29.5 32.5t36.5 30.5q17 11 27 -3zM377 151q26 -35 26 -111q0 -31 -5 -50
q-10 -40 -34 -72.5t-52 -49.5t-45.5 -25t-25.5 -10q-5 -1 -14 5t-11 11q-1 3 9 9q58 37 81.5 64t23.5 60q0 25 -16 47q-26 37 -30.5 46t0.5 16q6 10 29.5 32.5t36.5 30.5q17 11 27 -3z" />
    <glyph glyph-name="bullet" unicode="&#x2022;" horiz-adv-x="335" 
d="M163 331q47 0 77 -27q32 -30 32 -86q0 -51 -30 -81q-31 -31 -84 -31q-48 0 -77 29q-31 32 -31 85q0 46 35 80q33 31 78 31z" />
    <glyph glyph-name="ellipsis" unicode="&#x2026;" horiz-adv-x="840" 
d="M48 39q-2 17 -0.5 26t9.5 20q10 14 34 16q39 4 55 -15q8 -11 7 -46q-2 -24 -12 -33q-14 -13 -50 -13q-23 0 -35 16q-5 6 -8 29zM348 39q-2 17 -0.5 26t9.5 20q10 14 34 16q39 4 55 -15q8 -11 7 -46q-2 -24 -12 -33q-14 -13 -50 -13q-23 0 -35 16q-5 6 -8 29zM648 39
q-2 17 -0.5 26t9.5 20q10 14 34 16q39 4 55 -15q8 -11 7 -46q-2 -24 -12 -33q-14 -13 -50 -13q-23 0 -35 16q-5 6 -8 29z" />
    <glyph glyph-name="guilsinglleft" unicode="&#x2039;" horiz-adv-x="420" 
d="M328 356q-69 -59 -180 -130q-5 -3 0 -6q92 -59 198 -137q6 -5 -17 -42q-3 -5 -5 -2q-18 21 -123 84.5t-154 82.5q-5 3 -3.5 14.5t9.5 14.5q53 22 143.5 78.5t135.5 90.5q6 4 6 -4q0 -28 -6 -40q-2 -4 -4 -4z" />
    <glyph glyph-name="guilsinglright" unicode="&#x203a;" horiz-adv-x="420" 
d="M63 356q-2 0 -4 4q-6 12 -6 40q0 8 6 4q45 -34 135.5 -90.5t143.5 -78.5q8 -3 9.5 -14.5t-3.5 -14.5q-49 -19 -154 -82.5t-123 -84.5q-2 -3 -5 2q-23 37 -17 42q106 78 198 137q5 3 0 6q-111 71 -180 130z" />
    <glyph glyph-name="fraction" unicode="&#x2044;" horiz-adv-x="430" 
d="M371 728q20 -13 40 -32q2 -2 0 -7q-22 -54 -98.5 -256.5t-139.5 -363.5t-84 -197q-2 -4 -6 -7q-16 -11 -47 -17q-7 -1 -9 1t0 6q22 47 56.5 132.5t80 204t75 197.5t76 204.5t49.5 133.5q2 4 7 1z" />
    <glyph glyph-name="Euro" unicode="&#x20ac;" horiz-adv-x="511" 
d="M319 621q-31 23 -75 23q-56 0 -95.5 -66.5t-45.5 -167.5h204q2 -1 2 -5q0 -1 -2.5 -9t-5.5 -16.5t-4 -9.5h-195q0 -39 2 -58h193q1 0 1 -10q0 -6 -4.5 -18.5t-6.5 -13.5h-179q13 -108 55.5 -175t119.5 -67q58 0 80 26t39 95q2 5 7 3q10 -2 25 -7q5 -3 5 -7
q-11 -84 -22 -116q-1 -3 -14 -9q-60 -26 -117 -26q-131 0 -193 72.5t-73 210.5h-60q-1 0 -1 4q0 12 7 36q2 3 5 3q10 -1 46 -1v58h-48q-1 0 -2 4t0 5q1 6 9 31q0 1 5 1q7 -1 40 -1q7 52 25 98.5t47 86.5t74 63t101 23q16 0 31 -3q23 -3 48 -9.5t39 -10.5l13 -5l20 -20
q4 -2 4 -10q0 -45 -7 -94q-1 -4 -6 -4h-31q-7 0 -7 4q-1 10 -8 33q-12 35 -45 59z" />
    <glyph glyph-name="trademark" unicode="&#x2122;" horiz-adv-x="491" 
d="M459 511h13q3 0 3 -11q-5 0 -19.5 0.5t-21.5 0.5t-20.5 -0.5t-18.5 -0.5q0 11 3 11h13q10 0 10 7q1 12 -2 133l-69 -150h-5l-74 160q0 -7 -0.5 -38.5t-0.5 -49.5q0 -38 2 -50h-19q2 7 3.5 44.5t1.5 71.5l1 34q0 8 -13 8h-13q-3 0 -3 11q5 0 18.5 -0.5t19.5 -0.5h17
l68 -149q4 9 10.5 23t20.5 44.5t23 50.5l9 20l6 12h50q0 -11 -2 -11h-14q-11 0 -11 -7l4 -156q0 -7 10 -7zM142 511h13q4 0 4 -11q-11 1 -44 1q-6 0 -21.5 -0.5t-19.5 -0.5q0 11 1 11h16q13 0 13 7v159q0 1 -1 1h-39q-19 0 -22 -27q0 -1 -2 -1h-10v2l1 34l5 5h161l6 -5v-35
q0 -1 -3 -1h-9v1q-4 16 -7.5 21t-12.5 6h-39q-3 0 -3 -1v-159q0 -7 13 -7zM288 511h12q3 0 3 -11q-5 0 -19.5 0.5t-21.5 0.5t-20.5 -0.5t-18.5 -0.5q0 11 3 11h13q10 0 14 12h19q0 -12 16 -12z" />
    <glyph glyph-name="infinity" unicode="&#x221e;" horiz-adv-x="801" 
d="M726 208q0 -72 -52.5 -123t-109.5 -50q-88 2 -171 126q-3 4 -5 0q-80 -127 -177 -127q-78 0 -128 50t-50 145q0 62 47 120t114 58l8 1q8 0 13 -0.5l15 -1.5t19 -4t21 -8t24 -13.5t25 -19t27 -27t28 -35.5q4 -7 7 -1q41 61 80 84.5t86 23.5q83 0 131 -51.5t48 -146.5z
M688 231q0 53 -31.5 83.5t-80.5 30.5q-17 0 -31.5 -3.5t-29 -16t-22.5 -19.5t-24 -32t-21.5 -34t-25.5 -44q-4 -5 0 -10q69 -82 136 -82q60 0 95 33.5t35 93.5zM76 207q0 -43 30.5 -75t70.5 -32q55 0 92 34t88 125q3 5 0 10q-38 45 -71 65t-72 20q-57 0 -97.5 -40.5
t-40.5 -106.5z" />
    <glyph glyph-name="integral" unicode="&#x222b;" horiz-adv-x="500" 
d="M296 736q65 48 110 49q47 0 65 -37l1 -11l-14 -93q0 -3 -4 -3h-7.5h-9h-8h-5.5h-2q-4 0 -4 4l-3 34q-3 24 -17 32.5t-43 8.5q-24 0 -41 -14.5t-26 -33.5t-13.5 -50t-5.5 -51t-1 -49q0 -79 14.5 -241.5t14.5 -249.5q0 -72 -22 -125t-86 -88q-57 -39 -92 -40q-47 0 -65 37
l-1 11l14 93q0 3 4 3h7.5h9h8h5.5h2q4 0 4 -4l3 -34q3 -24 17 -32.5t43 -8.5t47.5 20.5t24.5 46t6 57.5q0 48 -15 176q-25 206 -25 342q0 180 110 251z" />
    <glyph glyph-name="notequal" unicode="&#x2260;" 
d="M505 158l-233 -1l-62 -137q-2 -3 -9 0q-4 2 -9 7.5t-10.5 12t-6.5 7.5q-3 3 1 11q2 5 9 20t18.5 39.5t18.5 39.5h-155q-3 0 -3 9q5 39 13 58q2 3 9 2q9 -2 165 -2l51 114h-236q-1 0 -2.5 3.5t-0.5 5.5q4 32 15 55q0 2 9 1q12 -1 243 -1l56 127q1 3 5.5 4t5.5 -1
q24 -24 28 -30q2 -3 0 -8l-42 -92h142q4 -4 2 -10q-2 -8 -9 -30t-11 -23l-153 -1l-52 -114h221q2 -1 2 -10q-1 -8 -9 -31.5t-11 -24.5z" />
    <glyph glyph-name="lessequal" unicode="&#x2264;" horiz-adv-x="572" 
d="M493 517q-13 -10 -79 -44.5t-163.5 -84t-106.5 -53.5q-5 -3 0 -6q13 -8 185.5 -92t189.5 -100q3 -3 -6.5 -29.5t-16.5 -36.5q-5 -8 -10 -4q-36 27 -210 116t-255 122q-6 3 0 22.5t13 22.5q432 225 469 254q7 4 7 -6q0 -34 -10 -72q0 -2 -7 -9zM508 -29l-489 -1
q-1 0 -2.5 3.5t-0.5 5.5q4 32 15 55q0 2 9 1q18 -1 107 -1h379q4 -4 2 -10q-2 -8 -9 -30t-11 -23z" />
    <glyph glyph-name="greaterequal" unicode="&#x2265;" 
d="M506 -29l-489 -1q-1 0 -2.5 3.5t-0.5 5.5q4 32 15 55q0 2 9 1q18 -1 107 -1h379q4 -4 2 -10q-2 -8 -9 -30t-11 -23zM43 148q13 10 79 44.5t163.5 84t106.5 53.5q5 3 0 6q-13 8 -185.5 92t-189.5 100q-3 3 6.5 29.5t16.5 36.5q5 8 10 4q36 -27 210 -116t255 -122
q6 -3 0 -22.5t-13 -22.5q-432 -225 -469 -254q-7 -3 -7 6q0 34 10 72q0 3 7 9z" />
    <glyph glyph-name="_0129" horiz-adv-x="0" 
 />
    </font>
</defs>
</svg>
